<svg width="417" height="154" viewBox="0 0 417 154" fill="none"
    xmlns="http://www.w3.org/2000/svg">
    <path d="M395 91C395 118.614 372.614 141 345 141L19 141L19 91C19 63.3857 41.3858 41 69 41L345 41C372.614 41 395 63.3858 395 91V91Z" fill="url(#paint0_linear)"/>
    <path d="M404.707 102.293C404.317 101.902 403.683 101.902 403.293 102.293L396.929 108.657C396.538 109.047 396.538 109.681 396.929 110.071C397.319 110.462 397.953 110.462 398.343 110.071L404 104.414L409.657 110.071C410.047 110.462 410.681 110.462 411.071 110.071C411.462 109.681 411.462 109.047 411.071 108.657L404.707 102.293ZM354 153.5C380.478 153.5 405 134.124 405 103H403C403 132.876 379.522 151.5 354 151.5V153.5Z" fill="#C0E57B"/>
    <path d="M7.29289 82.2071C7.68342 82.5976 8.31658 82.5976 8.70711 82.2071L15.0711 75.8431C15.4616 75.4526 15.4616 74.8195 15.0711 74.4289C14.6805 74.0384 14.0474 74.0384 13.6569 74.4289L8 80.0858L2.34315 74.4289C1.95262 74.0384 1.31946 74.0384 0.928933 74.4289C0.538408 74.8195 0.538408 75.4526 0.928933 75.8431L7.29289 82.2071ZM58 31C31.5218 31 7 50.3764 7 81.5L9 81.5C9 51.6236 32.4782 33 58 33L58 31Z" fill="#91E8B3"/>
    <g filter="url(#filter0_d)">
        <path d="M89.5006 14.4439C91.7599 16.4809 92.7969 18.4995 92.6118 20.4995C92.3895 22.5365 91.2414 24.8884 89.1673 27.5551C87.9821 29.1106 86.5006 30.7218 84.7228 32.3884C82.9821 34.0181 81.5006 35.3144 80.2783 36.2774C79.0561 37.2403 77.3339 38.5737 75.1116 40.2774C70.1486 44.0552 65.0375 47.6108 59.7782 50.9441C59.4819 51.1293 58.3522 51.8145 56.3893 52.9997H56.5559C62.7412 53.0738 67.556 54.1294 71.0005 56.1664C73.3338 57.5738 75.1672 59.259 76.5005 61.222C77.8709 63.1479 78.2598 65.2591 77.6672 67.5554C76.7413 71.111 73.7783 74.9258 68.7782 78.9999C64.593 82.4814 58.8522 85.8889 51.5559 89.2222C44.2595 92.5185 37.4076 94.9815 31.0002 96.6112C23.8149 98.426 18.2038 98.2038 14.1667 95.9445C13.0186 95.2778 12.2963 94.5926 12 93.8889C11.8519 93.6296 11.8149 93.3704 11.8889 93.1111C11.963 92.8889 12.1852 92.7963 12.5556 92.8333C13.1112 93.0185 13.8889 93.0741 14.8889 93C15.889 92.9259 16.6667 92.8704 17.2223 92.8333C17.8149 92.7963 18.6112 92.6482 19.6112 92.3889C20.6483 92.1667 21.4446 91.9815 22.0001 91.8333C22.5557 91.6852 23.3149 91.463 24.2779 91.1667C25.2779 90.9074 26.0372 90.7037 26.5557 90.5556C28.4076 90.0741 30.0928 89.5741 31.6113 89.0555C30.352 87.8703 29.5187 86.4074 29.1113 84.6666C28.6668 82.7777 28.7965 80.5184 29.5002 77.8888C30.4631 74.148 32.6298 68.7961 36.0002 61.8331C36.2224 61.3887 36.5558 60.7035 37.0002 59.7775C37.4817 58.8516 37.8336 58.1479 38.0558 57.6664C37.0558 56.6664 36.7224 55.9071 37.0558 55.3886C37.2039 55.1294 37.3706 54.9071 37.5558 54.7219C37.741 54.4997 37.9632 54.296 38.2225 54.1108C38.5188 53.9256 38.741 53.796 38.8891 53.7219C39.0373 53.6479 39.3151 53.4997 39.7225 53.2775C40.1299 53.0553 40.3891 52.9256 40.5003 52.8886C42.0558 49.8515 43.8151 46.4811 45.7781 42.7774C50.0744 34.6292 53.0929 28.7218 54.8337 25.0551C56.0559 22.5365 56.9819 20.481 57.6115 18.8883C54.5744 19.8143 51.5003 20.8698 48.3892 22.055C44.7595 23.4995 41.4632 25.018 38.5002 26.6106C36.8706 27.5366 35.5187 28.3884 34.4447 29.1662C33.2965 30.0551 32.5928 30.7033 32.3335 31.1107C32.0372 31.5921 31.8706 32.0366 31.8335 32.444C31.8335 32.5922 31.8335 32.7588 31.8335 32.944V32.9996C31.7965 32.9996 31.7594 32.9625 31.7224 32.8885C31.6483 32.8514 31.5928 32.8144 31.5557 32.7773C31.815 32.9996 32.0743 33.2959 32.3335 33.6662C32.6298 34.0366 32.6854 34.3144 32.5002 34.4996C32.2409 34.8329 31.5928 34.7033 30.5557 34.1107C27.9631 32.407 27.0927 30.3144 27.9446 27.8329C28.1668 27.2403 28.5187 26.6662 29.0002 26.1106C29.4817 25.518 29.9076 25.0736 30.278 24.7773C30.6854 24.481 31.2594 24.0736 32.0002 23.555C35.2224 21.2587 39.1854 19.1106 43.8892 17.1106C47.0003 15.8142 50.13 14.6661 53.2781 13.6661C53.0559 13.7772 52.704 13.9439 52.2226 14.1661C51.7781 14.3513 51.4448 14.4809 51.2226 14.555C51.2226 14.8142 51.1114 14.9994 50.8892 15.1105C50.704 15.2217 50.5003 15.2402 50.2781 15.1661C50.0559 15.092 49.9077 15.0735 49.8337 15.1105C47.7596 15.9254 46.0744 16.6291 44.7781 17.2217C44.2595 17.4439 43.7966 17.7587 43.3892 18.1661C42.7595 18.8328 41.9077 19.3884 40.8336 19.8328C38.6854 20.8698 37.3891 21.4995 36.9447 21.7217C36.7965 21.7958 36.6484 21.8699 36.5002 21.9439C36.3521 22.018 36.1854 22.1106 36.0002 22.2217C35.815 22.3328 35.6669 22.4254 35.5558 22.4995L35.6113 22.6662C35.2039 22.8143 34.9817 22.9069 34.9447 22.9439C34.5372 23.2402 33.5928 24.0551 32.1113 25.3884C32.2965 25.2773 32.5372 25.1477 32.8335 24.9995C33.1298 24.8143 33.352 24.6847 33.5002 24.6106L33.5558 24.7217L32.5557 25.6106L32.6669 25.7217C33.9632 24.7958 34.7595 24.2402 35.0558 24.0551L34.8891 24.2217C37.5187 22.4439 40.0373 20.9069 42.4447 19.6106C39.3336 21.4624 36.6113 23.2402 34.278 24.9439L34.1113 25.1106C43.5558 18.3698 53.9448 13.7402 65.2782 11.2216L65.2227 11.1105C65.519 10.9624 65.7412 10.8698 65.8893 10.8327L66.556 10.6661C66.8153 10.629 67.2227 10.5735 67.7782 10.4994C68.3338 10.3883 68.7597 10.3142 69.056 10.2772C78.3524 9.16605 85.1673 10.555 89.5006 14.4439ZM34.6669 70.2776H34.8335C36.278 66.8702 37.0743 64.9998 37.2224 64.6665C37.2224 64.7035 37.2224 64.7961 37.2224 64.9442C37.2595 65.0554 37.278 65.1665 37.278 65.2776L37.778 64.1109L37.5558 64.3331L37.4447 64.2776C37.5558 63.8331 38.241 62.0739 39.5002 58.9998L39.6669 59.0553C39.6669 59.1294 39.6484 59.2405 39.6114 59.3887C39.6114 59.4998 39.6114 59.5924 39.6114 59.6664L39.7225 59.722C39.9447 59.2035 40.2595 58.4442 40.6669 57.4442C41.1114 56.4071 41.4447 55.6294 41.6669 55.1108C41.5188 54.9257 41.4632 54.7219 41.5003 54.4997C41.5743 54.2775 41.7225 54.1294 41.9447 54.0553C42.1299 53.9812 42.241 53.9071 42.278 53.8331L44.6114 49.3886C44.9447 48.7219 45.1299 48.2404 45.167 47.9441C45.241 47.1663 45.5929 46.296 46.2225 45.333L48.3892 42.0552C48.5003 41.907 48.6485 41.6848 48.8336 41.3885C49.0188 41.0552 49.1299 40.8515 49.167 40.7774L49.0003 40.6107C49.0374 40.5367 49.1114 40.4626 49.2225 40.3885C49.3707 40.2774 49.4633 40.1848 49.5003 40.1107C49.6485 39.7774 49.8522 39.2589 50.1114 38.5552C50.4077 37.8515 50.63 37.3144 50.7781 36.944C50.5559 37.2774 50.2596 37.6663 49.8892 38.1107H49.8337L50.3337 36.944L50.167 36.8885C49.5744 37.9255 49.1299 38.7218 48.8336 39.2774C48.8336 39.2404 48.8336 39.2033 48.8336 39.1663C48.8707 39.0922 48.8892 39.0366 48.8892 38.9996C48.4818 39.7033 48.0559 40.4626 47.6114 41.2774C47.204 42.0922 46.741 42.9996 46.2225 43.9996C45.741 44.9997 45.3521 45.7774 45.0558 46.333C46.4262 43.407 47.7596 40.7033 49.0559 38.2218L49.1114 38.1107C49.1485 38.0366 49.167 37.9811 49.167 37.944C44.2781 47.0182 39.6484 56.6479 35.278 66.8332L35.3891 66.8887C35.3521 66.9628 35.315 67.0739 35.278 67.222C35.241 67.3332 35.2224 67.4257 35.2224 67.4998C35.1484 67.7591 35.0372 68.148 34.8891 68.6665C34.7409 69.148 34.6298 69.5184 34.5558 69.7776C34.5558 69.8517 34.5928 70.0184 34.6669 70.2776ZM61.7226 80.2221C62.5375 79.5555 63.1671 79.0184 63.6115 78.611C63.2041 78.7962 62.8708 78.9258 62.6115 78.9999L62.556 78.8888L63.2782 78.3332L63.1671 78.2221C63.0189 78.2962 62.7412 78.4444 62.3337 78.6666C61.9634 78.8888 61.6671 79.074 61.4449 79.2221L61.5004 79.1666C61.5374 79.1295 61.5745 79.111 61.6115 79.111C59.7597 80.2221 58.0189 81.2221 56.3893 82.111C58.13 81.074 59.9819 79.9073 61.9449 78.611C61.9819 78.574 62.0004 78.5555 62.0004 78.5555C62.0004 78.4814 62.0189 78.4444 62.056 78.4444C55.2411 82.8148 48.2966 86.1666 41.2225 88.5V88.6111C41.0743 88.7592 40.9447 88.8518 40.8336 88.8889C40.6854 88.9629 40.4262 89.0926 40.0558 89.2778C39.7225 89.463 39.4632 89.5926 39.278 89.6667C39.241 89.7037 39.1669 89.8148 39.0558 90L39.1669 90.1111C41.0188 89.5185 42.4262 89.0555 43.3892 88.7222C43.3151 88.8704 43.241 89 43.1669 89.1111C43.204 89.1111 43.3151 89.0741 43.5003 89C43.7225 88.9259 43.8892 88.8704 44.0003 88.8333C43.9632 88.8333 43.9262 88.8148 43.8892 88.7778H43.7781L43.7225 88.6666C44.204 88.4074 44.8892 88.0926 45.7781 87.7222C46.667 87.3148 47.241 87.037 47.5003 86.8889L47.5559 87.0555L47.2781 87.3889L47.3336 87.5555L50.667 85.8889C50.5929 85.6666 50.6114 85.5 50.7226 85.3888C50.8707 85.2777 51.0374 85.2777 51.2226 85.3888C51.3707 85.4629 51.4818 85.4814 51.5559 85.4444C52.9633 84.9259 54.0929 84.4444 54.9448 83.9999C55.4263 83.7407 55.7411 83.5185 55.8893 83.3333C56.2596 82.8148 56.8337 82.4259 57.6115 82.1666C58.2041 81.9444 59.093 81.574 60.2782 81.0555L61.2782 80.5555L61.2226 80.3333C61.2967 80.3333 61.3708 80.3147 61.4449 80.2777C61.593 80.2777 61.6856 80.2592 61.7226 80.2221ZM70.556 59.4998C69.519 59.1664 68.4634 58.8886 67.3893 58.6664C66.3153 58.4072 65.093 58.2405 63.7226 58.1664C62.3893 58.0923 61.3337 58.0368 60.556 57.9998C59.8152 57.9627 58.593 57.9998 56.8893 58.1109C55.1855 58.222 54.1115 58.2961 53.667 58.3331C53.2226 58.3331 51.9818 58.4442 49.9448 58.6664C47.9448 58.8886 46.8522 58.9998 46.667 58.9998C45.4818 61.259 44.1855 63.8331 42.778 66.722C39.778 72.9443 37.6113 78.111 36.278 82.2222C36.0187 82.9999 35.6298 84.7222 35.1113 87.3889C35.1113 87.4259 35.0928 87.5 35.0558 87.6111C35.0558 87.6852 35.0558 87.7592 35.0558 87.8333C38.6484 86.537 41.9817 85.1851 45.0558 83.7777C51.3522 80.9629 56.2781 78.2406 59.8337 75.611C63.8338 72.648 66.8523 69.7406 68.8894 66.8887C70.6671 64.3331 71.3709 62.1664 71.0005 60.3887L70.9449 60.222C70.9079 60.1479 70.8523 60.0553 70.7783 59.9442C70.7412 59.7961 70.7227 59.6849 70.7227 59.6109L70.6671 59.5553C70.6301 59.5183 70.5931 59.4998 70.556 59.4998ZM79.445 32.8329C79.7413 32.4996 80.5006 31.5551 81.7228 29.9995C81.3894 30.2588 80.9635 30.5736 80.445 30.944L80.3894 30.8884L81.2228 29.8329L81.1117 29.7773L79.0561 31.8329L79.1672 31.6107C76.1672 34.6107 74.0746 36.6292 72.8894 37.6663C75.0746 35.5922 77.3153 33.3144 79.6117 30.8329C79.6487 30.7958 79.6857 30.7588 79.7228 30.7218C79.7598 30.6847 79.7783 30.6477 79.7783 30.6107C71.8153 38.9811 63.056 46.0737 53.5003 51.8886L53.6115 51.9997C53.5374 52.0738 53.4263 52.1479 53.2781 52.2219C53.167 52.296 53.0929 52.3701 53.0559 52.4442L51.0559 53.9442C51.0188 53.9812 50.9448 54.1479 50.8337 54.4442L50.9448 54.4997C53.6485 52.9442 55.5004 51.833 56.5004 51.1664C56.4263 51.2775 56.3337 51.4441 56.2226 51.6664C56.3337 51.5923 56.5004 51.4812 56.7226 51.333C56.9819 51.1478 57.1856 51.0182 57.3337 50.9441L57.0004 51.0553L56.8893 50.8886C57.4448 50.4071 58.2596 49.796 59.3337 49.0552C60.4448 48.2775 61.2411 47.6849 61.7226 47.2774L61.8893 47.3886L61.5004 47.9441L61.556 48.0552C64.1856 45.9441 65.593 44.8145 65.7782 44.6663C65.7041 44.4441 65.7412 44.2404 65.8893 44.0552C66.0375 43.87 66.2412 43.7959 66.5004 43.833C66.7227 43.833 66.8708 43.8145 66.9449 43.7774C68.3523 42.7774 69.7782 41.6848 71.2227 40.4996C71.6672 40.1663 72.0375 39.7589 72.3338 39.2774C72.7042 38.5737 73.3894 37.8515 74.3894 37.1107C75.7968 36.0366 76.9079 35.1662 77.7228 34.4996C78.2413 34.0551 78.6302 33.7033 78.8894 33.444L78.7783 33.2218C78.8524 33.1848 78.945 33.1292 79.0561 33.0551C79.1672 33.0181 79.2413 32.981 79.2783 32.944C79.3524 32.907 79.408 32.8699 79.445 32.8329ZM85.7228 15.8328V15.7772H85.6117C85.3895 15.7031 85.2413 15.6661 85.1673 15.6661C84.0191 15.4439 82.6302 15.2957 81.0006 15.2217C77.9635 15.1105 74.6672 15.3328 71.1116 15.8883C70.0375 16.0365 68.4264 16.3328 66.2782 16.7772C66.1301 18.2957 65.7227 20.0365 65.056 21.9995C64.3893 23.9254 63.8523 25.3328 63.4449 26.2217C63.0375 27.0736 62.2782 28.6662 61.1671 30.9995C59.6485 34.1848 57.2596 38.8885 54.0004 45.1108C59.4078 41.7033 64.2782 38.3329 68.6116 34.9996C74.8338 30.2218 79.0561 26.5366 81.2783 23.9439C83.2784 21.6106 84.6117 19.5921 85.2784 17.8883C85.5006 17.2587 85.6487 16.5735 85.7228 15.8328ZM58.6115 12.2216C57.7967 12.4809 56.8893 12.7957 55.8893 13.1661L55.8337 12.9994L55.9448 12.8883L58.6115 12.2216ZM117.223 75.5554C117.519 75.2962 118.019 75.4443 118.723 75.9999C119.464 76.5554 119.723 76.9814 119.501 77.2777C118.019 79.4999 116.112 81.6481 113.779 83.7222L112.112 85.2222C111.964 85.3703 111.723 85.6111 111.39 85.9444C111.056 86.2407 110.797 86.4629 110.612 86.6111C109.316 87.7963 108.056 88.3148 106.834 88.1666C106.353 88.0926 105.908 87.9629 105.501 87.7778C103.945 87.2592 102.427 86.1111 100.945 84.3333C99.834 82.9999 99.2785 81.4999 99.2785 79.8332C99.3155 78.3147 99.9081 76.1851 101.056 73.4443C101.241 72.9999 101.519 72.3702 101.89 71.5554C102.26 70.7036 102.482 70.185 102.556 69.9998C98.6303 74.8888 94.6118 79.4999 90.5006 83.8333C87.6858 86.7963 85.5932 88.7592 84.2228 89.7222C82.3709 91.0185 80.7598 91.4815 79.3894 91.1111C78.7968 90.963 78.1857 90.6296 77.5561 90.1111C76.0746 89.2222 74.945 88.1481 74.1672 86.8889C73.3894 85.6296 73.2412 84.2407 73.7227 82.7222C74.4635 80.2407 75.8524 76.7777 77.8894 72.3332C78.482 71.111 79.9635 68.1109 82.3339 63.3331C84.7413 58.5183 86.5006 54.759 87.6117 52.0553C87.7969 51.5367 88.5191 51.5553 89.7784 52.1108C91.0377 52.6293 92.1858 53.4256 93.2229 54.4997C94.2599 55.5368 94.6303 56.4071 94.334 57.1109C93.6303 58.8146 92.871 60.5183 92.0562 62.222C91.2784 63.8887 90.2229 66.0368 88.8895 68.6665C87.5562 71.2591 86.7228 72.9073 86.3895 73.611C84.7228 76.9443 83.4265 79.7592 82.5006 82.0555C81.945 83.3888 81.445 84.7222 81.0006 86.0555V86.1111L81.1672 85.9444C83.2043 84.4629 85.3895 82.574 87.7228 80.2777C88.871 79.1295 91.6488 76.2777 96.0562 71.7221C100.501 67.1665 104.001 63.7405 106.556 61.4442C106.667 61.3331 106.834 61.3331 107.056 61.4442C108.056 61.4072 109.316 62.0368 110.834 63.3331C112.39 64.5924 113.001 65.6294 112.667 66.4443C112.26 67.4072 111.575 68.9628 110.612 71.111C109.686 73.2221 108.982 74.8517 108.501 75.9999C107.723 77.8518 107.112 79.4629 106.667 80.8333C106.371 81.8703 106.167 82.6481 106.056 83.1666C106.167 83.1296 106.334 83.0555 106.556 82.9444C106.779 82.8333 106.964 82.7407 107.112 82.6666C108.297 82.1481 109.482 81.4629 110.667 80.611C112.63 79.2777 114.816 77.5925 117.223 75.5554ZM80.5561 78.1666L81.7228 75.8332C81.8709 75.574 81.908 75.2962 81.8339 74.9999C81.7228 74.5925 81.8339 74.111 82.1672 73.5554C82.5746 72.9258 82.9265 72.3332 83.2228 71.7776L83.5561 71.111L83.3895 70.9998L83.6672 70.7221C83.7413 70.3147 83.8154 69.7221 83.8895 68.9443C83.8524 69.0184 83.7784 69.1295 83.6672 69.2776C83.5561 69.3887 83.4821 69.4813 83.445 69.5554H83.3339L83.3895 68.8887L83.2784 68.8332L82.7784 70.1665V70.0554C82.2598 71.648 81.7783 72.9628 81.3339 73.9999L82.7228 69.5554L82.6672 69.4998V69.4443C81.8524 72.0369 80.908 74.5925 79.8339 77.111C78.8339 79.3703 78.2783 80.6296 78.1672 80.8888L77.2228 82.7222C76.7042 83.8333 76.4265 84.5 76.3894 84.7222L76.5561 84.7777L76.6116 85.1111C76.6857 85.7037 76.8524 86.0926 77.1116 86.2777C77.1487 86.3148 77.2598 86.2777 77.445 86.1666L77.5561 86.0555C77.1116 85.6481 77.1857 84.8703 77.7783 83.7222L77.945 84.0555C78.1302 83.6851 78.2228 83.4999 78.2228 83.4999C78.1487 83.574 78.0931 83.6111 78.0561 83.6111L77.8894 83.5555C77.9635 83.1851 78.1302 82.6851 78.3894 82.0555C78.6857 81.3888 78.8709 80.9629 78.945 80.7777L79.1117 80.8333L79.1672 81.2221L79.3339 81.2777C79.445 80.9814 79.5931 80.574 79.7783 80.0555C79.9635 79.4999 80.1117 79.0925 80.2228 78.8332C80.1117 78.7592 80.0191 78.6666 79.945 78.5555C79.908 78.4444 79.908 78.3703 79.945 78.3332C80.0191 78.2592 80.1117 78.2221 80.2228 78.2221C80.408 78.2221 80.5191 78.2036 80.5561 78.1666ZM105.39 74.5554C105.279 74.148 105.353 73.7036 105.612 73.2221C106.167 72.2962 106.482 71.7591 106.556 71.611L106.89 70.9443L106.667 70.8887L106.945 70.611C106.982 70.1295 107.038 69.5739 107.112 68.9443C106.89 69.2406 106.741 69.4443 106.667 69.5554L106.612 69.4998L106.667 68.8887H106.501C106.427 69.0369 106.353 69.2406 106.279 69.4998C106.204 69.7591 106.149 69.9628 106.112 70.111V70.0554C106.075 70.0184 106.056 69.9813 106.056 69.9443C105.908 70.3517 105.704 70.9813 105.445 71.8332C105.186 72.648 104.982 73.2591 104.834 73.6665C105.056 72.7406 105.427 71.3517 105.945 69.4998V69.3887L103.667 76.611L102.445 80.2221L101.834 81.9999C101.538 83.1481 101.39 83.8333 101.39 84.0555L101.556 83.9999L101.723 84.3333C102.093 84.8148 102.464 84.9074 102.834 84.6111C102.871 84.574 102.834 84.4814 102.723 84.3333L102.667 84.2777C102.519 84.1666 102.427 84.074 102.39 83.9999C102.316 83.7036 102.371 83.3148 102.556 82.8333C102.593 82.8703 102.63 82.9259 102.667 82.9999C102.741 83.074 102.779 83.1296 102.779 83.1666C102.816 83.0185 102.871 82.8333 102.945 82.611C102.871 82.6851 102.816 82.7222 102.779 82.7222L102.667 82.6666C102.704 82.2962 102.797 81.8147 102.945 81.2221C103.13 80.6296 103.241 80.2407 103.279 80.0555L103.445 80.111L103.556 80.3888L103.667 80.4444L104.223 78.1666C103.704 77.8703 103.686 77.6851 104.167 77.611C104.353 77.611 104.445 77.574 104.445 77.4999C104.89 76.5369 105.204 75.8147 105.39 75.3332C105.501 75.111 105.501 74.8517 105.39 74.5554ZM148.501 78.5555C149.094 79.0369 149.316 79.4444 149.168 79.7777L149.112 79.8332V79.8888C148.89 80.037 148.705 80.0925 148.557 80.0555C146.89 80.0925 144.908 79.3703 142.612 77.8888C140.575 82.2592 137.927 85.7592 134.668 88.3889C131.408 90.9815 128.316 91.8889 125.39 91.1111C123.538 90.6296 121.797 89.6852 120.168 88.2778C118.538 86.8703 117.371 85.2963 116.667 83.5555C115.667 80.9629 115.76 77.4814 116.945 73.111C117.834 69.9258 119.26 66.722 121.223 63.4998C123.149 60.3516 125.279 57.6479 127.612 55.3886C128.649 54.3886 129.464 53.6293 130.056 53.1108C130.649 52.5923 131.501 52.0738 132.612 51.5553C133.723 51.0367 134.779 50.833 135.779 50.9441C136.816 51.0923 137.871 51.7034 138.945 52.7775C139.612 53.4442 139.945 53.9997 139.945 54.4442C141.612 55.5923 142.908 57.1664 143.834 59.1664C144.797 61.1664 145.297 63.222 145.334 65.3331C145.408 67.4072 145.242 69.4998 144.834 71.611C144.575 72.648 144.205 73.8147 143.723 75.111H143.779C144.075 75.2962 144.483 75.574 145.001 75.9443C145.26 76.1295 145.39 76.2036 145.39 76.1666C145.39 76.1666 145.316 76.1295 145.168 76.0554C145.39 76.2036 145.705 76.4258 146.112 76.7221C146.557 77.0184 146.834 77.2036 146.945 77.2777L147.723 77.8332C147.871 77.9443 148.094 78.1481 148.39 78.4444L148.612 78.6666L148.501 78.5555ZM122.668 69.8332C122.556 69.7591 122.482 69.6665 122.445 69.5554C122.408 69.4072 122.408 69.2961 122.445 69.2221C122.519 69.1109 122.63 69.0554 122.779 69.0554C122.927 69.0554 123.038 68.9998 123.112 68.8887C123.927 67.4813 124.556 66.4257 125.001 65.722C125.26 65.3517 125.408 64.9813 125.445 64.6109C125.482 64.0924 125.797 63.4628 126.39 62.722C126.612 62.4998 126.927 62.1479 127.334 61.6664C127.779 61.185 128.112 60.8146 128.334 60.5553C128.482 60.3701 128.723 60.1109 129.056 59.7775L128.945 59.6109C128.982 59.5738 129.056 59.5368 129.168 59.4998C129.279 59.4627 129.353 59.4257 129.39 59.3887C129.982 58.5368 130.538 57.9257 131.056 57.5553C130.723 57.6664 130.39 57.8146 130.056 57.9998L129.945 57.8886C130.056 57.7775 130.297 57.5738 130.668 57.2775L130.612 57.1109C130.056 57.4072 129.482 57.8516 128.89 58.4442L128.945 58.3886C128.982 58.3516 129.001 58.3146 129.001 58.2775C128.26 59.0553 127.019 60.722 125.279 63.2776C125.649 62.6109 126.242 61.6479 127.056 60.3887C127.871 59.2405 128.631 58.3331 129.334 57.6664L129.39 57.6109C129.427 57.5738 129.445 57.5368 129.445 57.4997C128.482 58.3516 127.205 59.9627 125.612 62.3331C124.575 63.8887 123.575 65.6294 122.612 67.5554C120.723 71.2961 119.26 75.0554 118.223 78.8332H118.39L118.334 79.3332C118.26 79.9999 118.334 80.5925 118.556 81.111C118.593 81.1481 118.705 81.2221 118.89 81.3333L119.001 81.2777C118.853 80.574 119.093 79.1851 119.723 77.111C119.76 77.1851 119.816 77.3332 119.89 77.5555C119.927 77.4814 119.964 77.3517 120.001 77.1666C120.075 76.9443 120.13 76.7777 120.168 76.6666L120.001 76.8332L119.834 76.7777C119.908 76.1851 120.297 74.8332 121.001 72.7221L121.168 72.7776L121.223 73.2776L121.334 73.3332C121.705 72.148 122.149 70.9813 122.668 69.8332ZM123.501 85.5C125.723 84.9074 127.945 83.537 130.168 81.3888C132.723 78.9444 134.834 76.0184 136.501 72.611C134.945 70.8702 133.723 69.185 132.834 67.5554C131.982 66.0739 131.334 64.7961 130.89 63.722C130.001 64.8702 129.242 65.9257 128.612 66.8887C125.131 72.2962 123.26 77.574 123.001 82.7222C122.964 83.6851 123.019 84.6296 123.168 85.5555C123.205 85.5555 123.26 85.5555 123.334 85.5555C123.408 85.5185 123.464 85.5 123.501 85.5ZM139.001 78.4999C139.149 78.0925 139.279 77.574 139.39 76.9443C139.279 77.0925 139.131 77.2592 138.945 77.4443L138.834 77.3888L138.945 76.8332L138.834 76.7777C138.612 77.2221 138.427 77.574 138.279 77.8332V77.7221C137.76 78.7221 137.094 79.7592 136.279 80.8333C137.094 79.4999 137.742 78.3147 138.223 77.2777V77.1666C137.223 79.2777 135.89 81.2221 134.223 82.9999C133.334 83.9629 132.445 84.7777 131.556 85.4444C131.445 85.5555 130.964 85.8889 130.112 86.4444C129.445 86.8889 128.964 87.1296 128.668 87.1666V87.2777C128.594 87.3518 128.501 87.3889 128.39 87.3889C127.982 87.4629 127.649 87.4074 127.39 87.2222H127.001L126.945 87.3333C127.279 87.8518 127.816 88.1111 128.556 88.1111C129.001 88.0741 129.519 87.9074 130.112 87.6111C130.112 87.6481 130.094 87.7037 130.056 87.7778C130.056 87.8148 130.038 87.8518 130.001 87.8889C130.001 87.8889 130.001 87.9074 130.001 87.9444C130.149 87.8703 130.334 87.7592 130.556 87.6111H130.39L130.279 87.5C130.501 87.2407 130.834 86.9259 131.279 86.5555C131.76 86.1851 132.094 85.9074 132.279 85.7222L132.39 85.8889L132.334 86.2222L132.39 86.3333C132.612 86.1111 132.908 85.7963 133.279 85.3888C133.686 84.9814 133.945 84.7222 134.057 84.6111C133.982 84.5 133.927 84.3888 133.89 84.2777C133.89 84.1666 133.927 84.1111 134.001 84.1111C134.075 84.074 134.168 84.074 134.279 84.1111C134.427 84.1851 134.519 84.2037 134.557 84.1666C135.371 83.4999 135.945 82.9629 136.279 82.5555C136.464 82.3703 136.557 82.1481 136.557 81.8888C136.557 81.4444 136.76 81.0555 137.168 80.7221C137.501 80.4629 137.927 80.0184 138.445 79.3888C138.482 79.3518 138.538 79.2592 138.612 79.111C138.723 78.9629 138.816 78.8703 138.89 78.8332L138.723 78.6666C138.908 78.5925 139.001 78.5369 139.001 78.4999ZM138.168 68.4443C139.057 65.6294 139.557 63.0553 139.668 60.722C139.742 58.5738 139.371 56.9072 138.557 55.722C137.853 56.3516 136.834 57.296 135.501 58.5553C135.353 59.4812 135.297 60.4442 135.334 61.4442V61.3887L135.279 61.3331C135.205 61.4813 135.149 61.5739 135.112 61.6109H135.001L134.834 61.4442H134.723V61.8887H134.668C134.705 62.0739 134.742 62.3146 134.779 62.6109C134.853 62.9072 134.89 63.1294 134.89 63.2776C134.742 62.9813 134.594 62.4627 134.445 61.722H134.334C134.594 63.2776 135.149 65.0554 136.001 67.0554L136.112 66.9998H136.168C136.205 67.0369 136.242 67.0554 136.279 67.0554C136.427 67.2035 136.557 67.2961 136.668 67.3332H136.779C136.89 67.2961 136.964 67.2776 137.001 67.2776L137.112 67.1665C137.075 67.0924 137.001 66.9628 136.89 66.7776C136.816 66.5554 136.76 66.3887 136.723 66.2776H136.779C137.371 67.5369 137.797 68.3702 138.057 68.7776C138.094 68.7406 138.112 68.685 138.112 68.6109C138.112 68.5369 138.131 68.4813 138.168 68.4443ZM135.501 62.9442C135.501 62.9072 135.501 62.8702 135.501 62.8331C135.538 62.7961 135.557 62.759 135.557 62.722C135.557 62.7961 135.575 62.9072 135.612 63.0553C135.649 63.1665 135.668 63.2591 135.668 63.3331C135.482 63.2591 135.427 63.1294 135.501 62.9442ZM136.279 65.3331L136.334 65.3887C136.371 65.4628 136.427 65.5924 136.501 65.7776C136.612 65.9257 136.686 66.0554 136.723 66.1665L136.668 66.222C136.557 66.148 136.445 66.0183 136.334 65.8331C136.223 65.6109 136.149 65.4813 136.112 65.4443L136.279 65.3331ZM136.057 64.4442L136.112 64.4998C136.112 64.5368 136.112 64.5739 136.112 64.6109L135.779 64.5554C135.779 64.5554 135.816 64.5368 135.89 64.4998L135.945 64.4442C135.982 64.4442 136.019 64.4442 136.057 64.4442ZM174.057 84.5555H174.112V84.6111L174.168 84.6666L174.057 84.5555ZM190.168 75.5554C190.464 75.2962 190.964 75.4443 191.668 75.9999C192.372 76.5554 192.613 76.9814 192.39 77.2777C190.798 79.611 188.927 81.7777 186.779 83.7777C186.594 83.9629 186.298 84.2037 185.89 84.5C185.52 84.7962 185.242 85.037 185.057 85.2222C184.872 85.3703 184.612 85.6111 184.279 85.9444C183.946 86.2407 183.705 86.4629 183.557 86.6111C182.261 87.7963 181.001 88.3148 179.779 88.1666C179.298 88.0926 178.853 87.9629 178.446 87.7778C177.372 87.3703 176.261 86.6666 175.112 85.6666H175.279C175.39 85.6666 175.483 85.5926 175.557 85.4444V85.3333C175.223 85.2592 175.02 85 174.946 84.5555C174.909 84.1851 174.946 83.7222 175.057 83.1666C175.131 83.3148 175.205 83.4259 175.279 83.4999L175.446 82.8333L175.279 82.9999L175.168 82.9444L175.668 79.9444L175.835 79.9999L175.946 80.3888H176.112C176.298 79.3518 176.483 78.4814 176.668 77.7777C176.149 77.4814 176.131 77.2962 176.612 77.2221C176.798 77.2221 176.89 77.1666 176.89 77.0555L177.946 74.611C178.057 74.3147 178.094 74.0369 178.057 73.7776C177.946 73.3332 178.057 72.8332 178.39 72.2776C178.538 72.0554 178.724 71.7591 178.946 71.3887C179.168 70.9813 179.353 70.685 179.501 70.4998C179.612 70.3517 179.742 70.1295 179.89 69.8332L179.724 69.7221L180.001 69.4443C180.038 69.2591 180.186 68.648 180.446 67.6109C180.372 67.685 180.279 67.7961 180.168 67.9443C180.094 68.0924 180.02 68.2035 179.946 68.2776L179.835 68.2221L180.001 67.5554L179.835 67.4998C179.761 67.648 179.649 67.8702 179.501 68.1665C179.39 68.4628 179.298 68.685 179.224 68.8332V68.6665C178.816 69.5554 178.242 70.9258 177.501 72.7776C178.02 71.148 178.575 69.611 179.168 68.1665V68.0554C178.131 70.4258 177.112 73.111 176.112 76.111C175.742 77.2962 175.335 78.6666 174.89 80.2221L174.335 82.2777C174.075 83.2777 173.964 83.9999 174.001 84.4444L173.89 84.3333C172.779 82.9999 172.223 81.4999 172.223 79.8332C172.261 78.3147 172.853 76.1851 174.001 73.4443C174.298 72.7406 175.112 70.8702 176.446 67.8332C174.112 69.4628 171.353 71.6295 168.168 74.3332C166.835 75.4443 165.835 76.2962 165.168 76.8888C164.797 77.0369 164.427 77.2406 164.057 77.4999V77.1666L163.723 77.3332C163.76 77.3332 163.779 77.3332 163.779 77.3332L163.89 77.3888L163.946 77.5555C163.835 77.7036 163.705 77.8518 163.557 77.9999C163.446 78.111 163.316 78.2221 163.168 78.3332C163.02 78.4444 162.89 78.5555 162.779 78.6666L162.668 78.5555V78.2777L162.612 78.1666L161.557 79.2221C161.779 79.5184 161.816 79.6851 161.668 79.7221C161.631 79.7221 161.575 79.6851 161.501 79.611L161.279 79.4999C160.872 79.7962 160.501 80.111 160.168 80.4444C160.02 80.5925 159.964 80.7407 160.001 80.8888C160.075 81.1851 159.964 81.4444 159.668 81.6666C159.223 81.9629 158.909 82.2036 158.723 82.3888C158.686 82.4259 158.631 82.4814 158.557 82.5555C158.483 82.5925 158.427 82.6296 158.39 82.6666C158.427 82.7407 158.464 82.7777 158.501 82.7777C158.464 82.7777 158.446 82.7962 158.446 82.8333L158.334 82.8888C158.297 82.8888 158.242 82.9259 158.168 82.9999C158.131 83.074 158.094 83.1111 158.057 83.1111C157.501 83.5555 156.686 84.2777 155.612 85.2777C154.575 86.2407 153.779 86.9629 153.223 87.4444C151.075 89.2592 149.612 90.3333 148.834 90.6667C148.76 90.7407 148.668 90.7407 148.557 90.6667C147.779 91.037 146.501 90.537 144.723 89.1667C142.908 87.7592 142.205 86.6111 142.612 85.7222C147.797 75.0554 153.834 63.5553 160.723 51.2219C160.983 50.7775 161.612 50.796 162.612 51.2775C163.649 51.7219 164.575 52.3886 165.39 53.2775C166.205 54.1294 166.483 54.8331 166.223 55.3886C161.26 65.9443 156.575 75.4999 152.168 84.0555C153.279 82.8703 154.112 81.9629 154.668 81.3333C158.668 76.8147 163.816 71.9258 170.112 66.6665C172.409 64.7035 174.483 63.185 176.335 62.1109C177.89 61.1479 179.261 60.8701 180.446 61.2776C181.446 61.8331 182.353 62.3516 183.168 62.8331C185.205 64.3517 186.02 65.5739 185.612 66.4998C185.205 67.4998 184.52 69.0554 183.557 71.1665C182.631 73.2406 181.927 74.8517 181.446 75.9999C180.668 77.8518 180.057 79.4629 179.612 80.8333C179.353 81.7222 179.149 82.4814 179.001 83.1111C179.112 83.037 179.279 82.9629 179.501 82.8888C179.761 82.7777 179.946 82.7036 180.057 82.6666C181.131 82.1851 182.298 81.4999 183.557 80.611C185.705 79.1295 187.909 77.4443 190.168 75.5554ZM150.946 74.9443H151.057C151.946 73.4628 152.612 72.3332 153.057 71.5554C153.057 71.7406 153.075 71.8887 153.112 71.9999C153.371 71.5554 153.52 71.3147 153.557 71.2776L153.334 71.3887L153.223 71.3332C153.297 71.111 153.834 69.9998 154.834 67.9998L155.001 68.0554L154.946 68.4998L155.112 68.5554C155.297 68.2221 155.538 67.7406 155.834 67.1109C156.168 66.4443 156.409 65.9443 156.557 65.6109C156.483 65.5368 156.427 65.4628 156.39 65.3887C156.353 65.2776 156.334 65.2035 156.334 65.1665C156.334 65.0924 156.353 65.0368 156.39 64.9998C156.464 64.9628 156.557 64.9442 156.668 64.9442C156.816 64.9442 156.927 64.9072 157.001 64.8331C157.816 63.6479 158.409 62.7405 158.779 62.1109C159.001 61.7405 159.112 61.4072 159.112 61.1109C159.112 60.6294 159.353 60.0738 159.834 59.4442L161.39 57.3886C161.427 57.3146 161.52 57.2034 161.668 57.0553C161.816 56.8701 161.909 56.722 161.946 56.6109L161.779 56.4442C162.038 56.296 162.168 56.2034 162.168 56.1664C162.279 55.9071 162.538 55.2034 162.946 54.0553C162.835 54.1664 162.705 54.296 162.557 54.4442C162.446 54.5923 162.353 54.7034 162.279 54.7775L162.168 54.7219L162.501 53.9442L162.335 53.8886C161.964 54.5553 161.668 55.0738 161.446 55.4442V55.2775L158.834 59.9442C160.02 57.5738 160.909 55.8146 161.501 54.6664L161.557 54.6108V54.5553C158.112 60.8516 154.705 66.8702 151.334 72.611L151.446 72.6665C151.446 72.7036 151.427 72.7776 151.39 72.8888C151.353 72.9999 151.334 73.0739 151.334 73.111C151.297 73.2962 151.223 73.5554 151.112 73.8888C151.001 74.1851 150.908 74.4073 150.834 74.5554C150.797 74.6295 150.834 74.7591 150.946 74.9443ZM229.946 76.4999C230.168 76.3147 230.502 76.4073 230.946 76.7777C231.428 77.111 231.613 77.4073 231.502 77.6666C230.465 79.9258 228.428 82.574 225.391 85.6111C225.057 85.9444 224.539 86.4259 223.835 87.0555C223.131 87.6852 222.594 88.1666 222.224 88.5C220.928 89.7222 219.816 90.5556 218.89 91C217.853 91.4815 216.52 91.2778 214.89 90.3889C214.89 90.3518 214.909 90.3333 214.946 90.3333C214.983 90.3333 215.02 90.3148 215.057 90.2778L214.946 90.2222L214.89 90.3333L214.835 90.3889C214.798 90.3518 214.724 90.3148 214.613 90.2778C214.502 90.2037 214.427 90.1481 214.39 90.1111L214.557 90.0555L214.668 89.9444C214.594 89.9074 214.52 89.8704 214.446 89.8333C214.372 89.7963 214.298 89.7778 214.224 89.7778C214.15 89.8148 214.094 89.8518 214.057 89.8889L214.002 89.8333L214.168 89.6667C214.168 89.6296 214.15 89.5555 214.113 89.4444C214.113 89.3333 214.094 89.2592 214.057 89.2222C214.057 89.1852 213.983 89.1852 213.835 89.2222C213.613 89.2592 213.502 89.2222 213.502 89.1111C213.539 89.0741 213.557 89 213.557 88.8889C213.557 88.7778 213.576 88.7037 213.613 88.6666L213.668 88.6111C213.668 88.5741 213.668 88.537 213.668 88.5L213.446 88.6111L213.613 88.5C213.576 88.4629 213.483 88.4444 213.335 88.4444C213.224 88.4074 213.15 88.3889 213.113 88.3889L212.946 88.5555L212.89 88.6111L212.724 88.5555L212.557 88.6111L212.668 88.8333H212.613C211.168 87.6111 210.261 86.3148 209.89 84.9444C209.483 83.6111 209.576 81.9814 210.168 80.0555C210.761 78.2036 211.242 76.8147 211.613 75.8888C210.946 76.5925 209.52 77.9999 207.335 80.111C205.15 82.2222 203.501 83.8888 202.39 85.1111C201.02 86.5926 199.409 88.2222 197.557 90C197.52 90.037 197.409 90.1296 197.224 90.2778C197.076 90.4259 196.964 90.537 196.89 90.6111C196.816 90.6481 196.687 90.7222 196.501 90.8333C196.353 90.9444 196.224 91.037 196.113 91.1111V91.3333L196.057 91.3889C196.02 91.4259 195.983 91.4444 195.946 91.4444V91.3889C195.909 91.2778 195.853 91.2222 195.779 91.2222C195.668 91.2222 195.538 91.2222 195.39 91.2222C195.279 91.2222 195.15 91.2222 195.001 91.2222C194.89 91.2222 194.798 91.2222 194.724 91.2222C194.613 91.2222 194.501 91.2963 194.39 91.4444C194.205 91.7037 193.983 91.7593 193.724 91.6111C193.613 91.537 193.464 91.4259 193.279 91.2778C193.131 91.1296 193.038 91.0556 193.001 91.0556C192.927 90.9815 192.853 90.9259 192.779 90.8889L192.668 91.0556C192.668 90.9074 192.65 90.8333 192.613 90.8333C192.316 90.8333 192.075 90.8148 191.89 90.7778C191.15 90.2222 190.594 89.6852 190.224 89.1667C190.224 89.1296 190.205 89.0926 190.168 89.0555C190.131 88.9815 190.094 88.9259 190.057 88.8889C189.872 88.7407 189.631 88.5185 189.335 88.2222C187.853 86.7407 187.057 85.4444 186.946 84.3333C186.872 83.6296 187.094 82.3888 187.612 80.611C188.242 78.4258 189.427 75.8888 191.168 72.9999C193.946 68.4072 197.057 64.0739 200.501 59.9998C202.613 57.5183 204.39 55.6664 205.835 54.4442C208.39 52.333 210.446 51.3886 212.002 51.6108C212.594 51.7219 213.261 51.9442 214.002 52.2775C214.372 52.4997 214.65 52.7034 214.835 52.8886C214.724 52.8145 214.539 52.7219 214.279 52.6108C214.02 52.4997 213.835 52.4071 213.724 52.333L213.668 52.3886C214.965 53.0923 215.89 54.0553 216.446 55.2775L216.613 55.222C216.65 55.222 216.668 55.2405 216.668 55.2775C216.668 55.2775 216.687 55.2775 216.724 55.2775C216.761 55.2775 216.816 55.3145 216.89 55.3886C216.965 55.4257 217.039 55.4627 217.113 55.4997C217.224 55.4627 217.316 55.4442 217.39 55.4442L217.502 55.3886C217.465 55.3145 217.428 55.222 217.39 55.1108C217.353 54.9997 217.316 54.9257 217.279 54.8886C217.835 55.6294 218.168 56.3516 218.279 57.0553C218.316 57.4257 218.298 57.796 218.224 58.1664C218.187 58.5368 218.057 58.9257 217.835 59.3331C217.65 59.7405 217.483 60.0738 217.335 60.3331C217.187 60.5553 216.946 60.9072 216.613 61.3887C216.316 61.8331 216.131 62.1294 216.057 62.2776C213.502 66.3146 210.113 69.5924 205.89 72.111C205.779 72.185 205.594 72.111 205.335 71.8887C205.076 71.6665 204.983 71.4999 205.057 71.3887C207.094 68.6109 208.816 65.8146 210.224 62.9998C210.816 61.8146 211.298 60.6109 211.668 59.3887C210.927 60.0924 209.89 61.185 208.557 62.6665C206.705 64.7405 204.594 67.4257 202.224 70.7221C199.816 74.2036 197.946 77.1851 196.613 79.6666C195.65 81.4814 194.927 83.0925 194.446 84.5C194.446 84.537 194.446 84.5925 194.446 84.6666C194.446 84.7037 194.427 84.7407 194.39 84.7777C197.946 82.2222 201.946 79.0369 206.39 75.2221C206.909 74.7777 207.816 73.9814 209.113 72.8332C210.446 71.648 211.483 70.7406 212.224 70.111C214.261 68.3332 215.465 67.2776 215.835 66.9443C215.872 66.9072 215.909 66.8887 215.946 66.8887C216.502 66.3331 217.724 66.7406 219.613 68.1109C220.502 68.7776 221.113 69.3887 221.446 69.9443C221.853 70.611 221.965 71.0739 221.779 71.3332C221.631 71.9628 221.02 73.4813 219.946 75.8888C219.057 78.0369 218.409 79.6481 218.002 80.7221C217.261 82.7962 216.779 84.3703 216.557 85.4444C216.52 85.5926 216.465 85.8518 216.39 86.2222C217.353 85.7777 218.057 85.4444 218.502 85.2222C219.687 84.5925 221.002 83.7592 222.446 82.7222C223.779 81.7962 225.057 80.7962 226.279 79.7221C226.502 79.537 227.039 79.0555 227.891 78.2777C228.779 77.4629 229.465 76.8703 229.946 76.4999ZM194.001 76.9443L194.89 74.9999C194.779 74.9258 194.705 74.8332 194.668 74.7221C194.631 74.611 194.631 74.5369 194.668 74.4999C194.742 74.4628 194.835 74.4443 194.946 74.4443H195.224C195.298 74.3332 195.501 74.0739 195.835 73.6665C196.168 73.2221 196.409 72.8888 196.557 72.6665C196.705 72.4443 196.761 72.2221 196.724 71.9999C196.687 71.5554 196.853 71.185 197.224 70.8887C197.372 70.7776 197.576 70.5924 197.835 70.3332C198.131 70.0369 198.353 69.8147 198.501 69.6665C198.538 69.5924 198.613 69.4998 198.724 69.3887C198.835 69.2776 198.909 69.2035 198.946 69.1665L198.779 69.0554L199.113 68.8887C199.409 68.0739 199.594 67.5924 199.668 67.4443C199.594 67.4813 199.501 67.5554 199.39 67.6665C199.279 67.7776 199.187 67.8517 199.113 67.8887L199.057 67.7776L199.279 67.2776L199.113 67.222C198.927 67.4813 198.687 67.7961 198.39 68.1665C198.39 68.1295 198.39 68.1109 198.39 68.1109C198.427 68.1109 198.446 68.0924 198.446 68.0554C197.964 68.7221 197.279 69.7221 196.39 71.0554C196.909 70.0924 197.594 68.9443 198.446 67.6109V67.4998C195.89 71.2036 193.464 75.2221 191.168 79.5555L191.279 79.611C191.279 79.6481 191.261 79.7036 191.224 79.7777C191.224 79.8147 191.224 79.8518 191.224 79.8888C191.15 80.074 191.075 80.4258 191.001 80.9444C191.001 80.9814 191.02 81.0184 191.057 81.0555C191.131 81.1296 191.168 81.1851 191.168 81.2221L191.335 81.2777C191.853 80.2407 192.261 79.4629 192.557 78.9444L192.668 79.2777C192.705 79.2407 192.742 79.1666 192.779 79.0555C192.853 78.9444 192.909 78.8518 192.946 78.7777C192.909 78.8147 192.853 78.8332 192.779 78.8332L192.668 78.7777C192.668 78.7036 192.983 77.9443 193.613 76.4999L193.779 76.5554L193.835 76.8888L194.001 76.9443ZM215.613 78.9999C215.205 78.8518 215.094 78.7221 215.279 78.611C215.316 78.574 215.39 78.5555 215.502 78.5555C215.687 78.5555 215.779 78.5369 215.779 78.4999L216.446 76.6666C216.52 76.4073 216.52 76.2036 216.446 76.0554C216.261 75.7221 216.298 75.3703 216.557 74.9999C216.668 74.8517 216.816 74.6295 217.002 74.3332C217.187 74.0369 217.335 73.8147 217.446 73.6665C217.483 73.5925 217.52 73.5184 217.557 73.4443C217.631 73.3702 217.687 73.2962 217.724 73.2221L217.502 73.111C217.687 73.0369 217.779 72.9813 217.779 72.9443C217.853 72.3517 217.909 71.8887 217.946 71.5554L217.502 71.9999L217.446 71.9443L217.502 71.4999L217.335 71.4443C217.224 71.7776 217.094 72.0925 216.946 72.3887C216.946 72.3517 216.928 72.3332 216.89 72.3332C216.89 72.3332 216.89 72.3147 216.89 72.2776C216.631 72.9443 216.279 73.9443 215.835 75.2777C216.094 74.1665 216.428 73.0369 216.835 71.8887L216.779 71.8332V71.7776C216.15 73.4813 215.52 75.4628 214.89 77.7221C214.705 78.3888 214.465 79.3888 214.168 80.7221C213.946 81.6851 213.835 82.2036 213.835 82.2777C213.761 82.9814 213.853 83.574 214.113 84.0555L214.224 83.9999C214.261 84.037 214.335 84.0925 214.446 84.1666C214.742 84.4259 215.057 84.5185 215.39 84.4444C215.427 84.4444 215.446 84.4074 215.446 84.3333C215.483 84.2592 215.502 84.2037 215.502 84.1666V84.0555C215.316 84.0555 215.131 83.9444 214.946 83.7222C214.798 83.4629 214.742 83.1666 214.779 82.8333C214.816 82.8703 214.909 82.9259 215.057 82.9999V82.611L214.946 82.7222L214.779 82.6666C214.705 82.3333 214.668 82.111 214.668 81.9999C214.705 81.8518 214.742 81.611 214.779 81.2777C214.853 80.9444 214.89 80.7036 214.89 80.5555L215.057 80.611L215.224 80.8888H215.39C215.465 79.9999 215.539 79.3703 215.613 78.9999ZM237.002 23.055C239.224 22.2032 241.131 21.5736 242.724 21.1661C239.946 22.0921 237.742 22.9069 236.113 23.6106C236.187 23.5365 236.483 23.3513 237.002 23.055ZM327.891 26.7217C328.336 27.0551 328.706 27.5366 329.002 28.1662C329.151 28.5736 329.058 28.7773 328.725 28.7773C328.614 28.7773 328.465 28.7403 328.28 28.6662C328.243 28.6662 328.169 28.6477 328.058 28.6106C327.947 28.5736 327.873 28.5366 327.836 28.4995H327.78C327.558 28.4625 327.132 28.3699 326.502 28.2218C326.021 28.1106 325.206 27.944 324.058 27.7217C323.688 27.6477 323.132 27.5551 322.391 27.444C321.651 27.2958 321.113 27.1847 320.78 27.1106L320.836 26.9995C320.91 26.9995 321.021 27.018 321.169 27.0551C321.354 27.0921 321.502 27.1106 321.613 27.1106C322.095 27.1847 323.021 27.3884 324.391 27.7217C324.428 27.7217 324.632 27.6847 325.002 27.6106L324.947 27.444C322.28 26.5551 319.891 25.8699 317.78 25.3884C317.854 25.3514 317.965 25.3328 318.113 25.3328C318.262 25.2958 318.373 25.2773 318.447 25.2773L316.947 24.9439L317.28 25.1106L317.225 25.2773C316.558 25.2032 315.447 25.0365 313.891 24.7773C312.373 24.518 311.187 24.3514 310.336 24.2773L310.391 24.1106C310.465 24.1106 310.576 24.0921 310.725 24.0551C310.91 24.018 311.039 23.9995 311.113 23.9995V23.8884C308.373 23.5921 306.317 23.3884 304.947 23.2773C304.836 23.4995 304.632 23.6291 304.336 23.6662C304.076 23.6662 303.854 23.5736 303.669 23.3884C303.484 23.2032 303.354 23.1106 303.28 23.1106C301.317 22.8513 299.28 22.6291 297.169 22.4439C296.317 22.3699 295.687 22.3884 295.28 22.4995C294.317 22.7217 293.15 22.7402 291.78 22.555C290.595 22.4069 289.002 22.2217 287.002 21.9995C286.817 21.9995 286.521 21.981 286.113 21.9439C285.706 21.9069 285.391 21.8884 285.169 21.8884L285.113 22.1106C285.039 22.1106 284.891 22.0921 284.669 22.055C284.484 21.981 284.354 21.9439 284.28 21.9439C284.132 21.9439 283.539 21.981 282.502 22.055C281.502 22.1291 280.706 22.2032 280.113 22.2773C280.372 22.3143 280.706 22.3699 281.113 22.4439C281.521 22.481 281.798 22.4995 281.947 22.4995V22.6106C281.761 22.6476 281.484 22.6662 281.113 22.6662C280.78 22.6662 280.539 22.6847 280.391 22.7217L280.446 22.8884H283.78C283.706 22.9254 283.595 22.9439 283.447 22.9439C287.928 23.018 291.28 23.1291 293.502 23.2773C287.391 23.1662 283.724 23.1291 282.502 23.1662C282.465 23.1662 282.409 23.1847 282.335 23.2217C282.298 23.2217 282.261 23.2217 282.224 23.2217C288.521 23.1847 294.984 23.4439 301.613 23.9995C308.984 24.6662 315.206 25.6662 320.28 26.9995C318.502 26.6291 317.039 26.3699 315.891 26.2217C303.706 24.3328 291.132 23.3513 278.169 23.2773C277.872 24.1662 276.521 27.2958 274.113 32.6662C272.78 35.6663 268.558 44.4997 261.446 59.1664H263.724C272.465 59.1664 279.521 60.3146 284.891 62.6109C285.261 62.759 285.632 63.1109 286.002 63.6665C286.224 63.9998 286.169 64.1665 285.835 64.1665C285.798 64.1294 285.743 64.1109 285.669 64.1109C283.743 63.7035 281.724 63.4072 279.613 63.222L279.78 63.0553V62.8887C278.15 62.6665 277.298 62.5553 277.224 62.5553L277.446 62.3331C277.372 62.3331 277.261 62.3331 277.113 62.3331C277.002 62.2961 276.928 62.2776 276.891 62.2776L277.002 62.3887V62.5553C276.706 62.6294 276.28 62.6665 275.724 62.6665C275.206 62.6665 274.835 62.685 274.613 62.722V62.4998L274.835 62.3331V62.1664C273.872 62.2405 273.15 62.3146 272.669 62.3887C272.632 62.6479 272.576 62.7776 272.502 62.7776C272.428 62.8146 272.354 62.759 272.28 62.6109C272.206 62.4627 272.15 62.3887 272.113 62.3887C271.372 62.3516 270.65 62.3516 269.946 62.3887C269.687 62.3887 269.483 62.4813 269.335 62.6665C269.076 62.9628 268.687 63.0739 268.169 62.9998C267.798 62.9628 267.224 62.9442 266.446 62.9442C266.372 62.9442 266.261 62.9628 266.113 62.9998C266.002 62.9998 265.909 62.9998 265.835 62.9998V63.1665C265.65 63.0924 265.539 63.0739 265.502 63.1109C265.391 63.1479 265.261 63.2035 265.113 63.2776C265.002 63.3516 264.854 63.4442 264.669 63.5553C264.52 63.6294 264.391 63.685 264.28 63.722C263.132 63.8331 261.372 63.9998 259.002 64.222C256.854 68.7406 255.076 72.5739 253.669 75.7221C250.261 83.4259 247.928 89.463 246.668 93.8334C245.891 96.3889 245.428 98.4075 245.28 99.889C245.243 100.148 245.224 100.537 245.224 101.056C245.224 101.093 245.261 101.259 245.335 101.556V101.667C245.557 101.963 245.705 102.185 245.78 102.333C246.076 102.704 246.113 102.963 245.891 103.111C244.891 103.778 243.391 103.056 241.391 100.945C240.613 100.13 240.057 99.1482 239.724 98.0001C239.057 95.8889 239.039 93.4445 239.668 90.6667C240.705 85.9629 243.002 79.574 246.557 71.4999C247.002 70.4628 248.113 68.0369 249.891 64.222C248.076 63.9628 246.891 63.7591 246.335 63.6109C244.928 63.2405 243.668 62.3146 242.557 60.8331C241.78 59.8331 241.705 59.2405 242.335 59.0553V58.9998H242.391H242.502C242.798 58.9627 243.243 58.9442 243.835 58.9442L243.613 59.1109V59.222H244.113C244.076 59.222 244.057 59.2405 244.057 59.2775C244.428 59.2775 244.946 59.2405 245.613 59.1664C245.243 59.2775 244.687 59.4072 243.946 59.5553L243.891 59.6109C245.039 59.4998 246.335 59.2961 247.78 58.9998C249.224 59.1109 250.668 59.1664 252.113 59.1664C251.335 60.8701 250.206 63.4257 248.724 66.8332L248.891 66.8887C248.891 66.9628 248.872 67.0739 248.835 67.222C248.798 67.3332 248.761 67.4257 248.724 67.4998C248.65 67.7591 248.539 68.148 248.391 68.6665C248.243 69.148 248.131 69.5184 248.057 69.7776C248.02 69.8517 248.057 70.0184 248.168 70.2776H248.335C249.78 66.8702 250.576 64.9998 250.724 64.6665C250.724 64.7035 250.724 64.7961 250.724 64.9442C250.761 65.0554 250.78 65.1665 250.78 65.2776L251.28 64.1109L251.057 64.3331L250.891 64.2776C251.002 63.8331 251.687 62.0739 252.946 58.9998L253.169 59.0553C253.169 59.1294 253.15 59.2405 253.113 59.3887C253.113 59.4998 253.113 59.5924 253.113 59.6664L253.224 59.722C253.446 59.2035 253.761 58.4442 254.169 57.4442C254.613 56.4071 254.946 55.6294 255.169 55.1108C254.983 54.9627 254.909 54.7775 254.946 54.5553C255.02 54.296 255.169 54.1294 255.391 54.0553C255.613 53.9812 255.743 53.9071 255.78 53.8331L258.113 49.3886C258.409 48.796 258.576 48.3145 258.613 47.9441C258.687 47.2404 259.057 46.37 259.724 45.333L261.891 42.0552C262.002 41.907 262.15 41.6848 262.335 41.3885C262.52 41.0552 262.632 40.8515 262.669 40.7774L262.502 40.6107C262.539 40.5367 262.613 40.4626 262.724 40.3885C262.872 40.2774 262.965 40.1848 263.002 40.1107C263.15 39.7774 263.354 39.2589 263.613 38.5552C263.909 37.8515 264.132 37.3144 264.28 36.944C264.057 37.2774 263.761 37.6663 263.391 38.1107H263.28L263.78 36.944L263.669 36.8885C263.076 37.9255 262.632 38.7218 262.335 39.2774C262.335 39.2404 262.335 39.2033 262.335 39.1663C262.372 39.0922 262.391 39.0366 262.391 38.9996C261.798 40.0367 260.502 42.4811 258.502 46.333C259.539 44.1478 260.891 41.4441 262.557 38.2218V38.1107C262.595 38.0366 262.613 37.9811 262.613 37.944C262.539 38.1292 262.409 38.407 262.224 38.7774C262.039 39.1107 261.909 39.3515 261.835 39.4996C264.169 34.6848 266.15 30.444 267.78 26.7773C267.928 26.4069 268.187 25.8514 268.558 25.1106C268.928 24.3328 269.187 23.7588 269.335 23.3884C264.002 23.5736 259.132 24.018 254.724 24.7217C254.094 24.8328 253.261 24.981 252.224 25.1662C253.335 25.7588 253.946 26.3514 254.057 26.944C254.094 27.3143 253.965 27.518 253.669 27.5551C253.372 27.5921 253.076 27.518 252.78 27.3329C252.372 27.1477 251.909 26.9995 251.391 26.8884C250.909 26.7773 250.465 26.7032 250.057 26.6662C249.687 26.6291 249.187 26.6662 248.557 26.7773C247.965 26.8884 247.502 26.981 247.168 27.0551C246.872 27.0921 246.372 27.2217 245.668 27.444C245.002 27.6662 244.557 27.8143 244.335 27.8884C244.15 27.9625 243.687 28.1477 242.946 28.444C242.205 28.7403 241.798 28.9069 241.724 28.944C241.205 29.1292 240.354 28.8884 239.168 28.2218C237.983 27.518 236.983 26.7032 236.168 25.7773C235.391 24.8514 235.224 24.2217 235.668 23.8884C239.594 22.1476 243.761 20.8884 248.168 20.1106C252.613 19.3328 257.687 18.7587 263.391 18.3883V18.2772C263.613 18.2032 263.798 18.1476 263.946 18.1106C264.909 17.9624 265.632 17.8328 266.113 17.7217H266.169C268.613 17.6476 270.446 17.6106 271.669 17.6106C272.261 15.8698 272.632 14.1846 272.78 12.555C272.854 11.7031 273.798 11.7031 275.613 12.555C277.465 13.4809 278.743 14.5365 279.446 15.7217C279.706 16.092 279.817 16.4439 279.78 16.7772C279.78 16.8513 279.761 17.018 279.724 17.2772C279.687 17.4994 279.65 17.6476 279.613 17.7217C284.65 17.9069 289.632 18.1846 294.558 18.555C302.373 19.2217 309.002 20.1476 314.447 21.3328C317.706 22.0736 320.299 22.8328 322.225 23.6106C323.336 24.018 324.354 24.481 325.28 24.9995C325.762 25.2217 326.058 25.3884 326.169 25.4995C326.243 25.5365 326.336 25.6106 326.447 25.7217C326.595 25.7958 326.688 25.8514 326.725 25.8884L327.891 26.7217ZM314.391 55.8331C315.058 56.722 315.095 58.2961 314.502 60.5553C314.206 61.7405 313.725 62.9998 313.058 64.3331C311.91 66.6665 310.465 68.6295 308.725 70.2221C307.576 71.3332 306.521 72.0739 305.558 72.4443C304.336 72.9628 303.095 73.111 301.836 72.8888C300.206 72.6665 298.817 71.9073 297.669 70.611C295.706 73.2776 294.076 75.6851 292.78 77.8332C291.187 80.4629 290.187 82.4814 289.78 83.8888C289.706 84.8888 289.743 85.7407 289.891 86.4444C289.928 86.5555 289.984 86.7592 290.058 87.0555C290.28 87.0555 290.595 87.0185 291.002 86.9444C291.41 86.8703 291.669 86.8333 291.78 86.8333C293.891 86.5 295.947 85.8333 297.947 84.8333C299.984 83.8333 302.336 82.3888 305.002 80.4999C307.669 78.611 309.465 77.3888 310.391 76.8332C310.502 76.7592 310.706 76.8517 311.002 77.111C311.299 77.3332 311.41 77.5184 311.336 77.6666C309.669 80.111 306.817 82.7777 302.78 85.6666C300.41 87.3333 298.058 88.8333 295.724 90.1667C293.65 91.3148 291.743 91.5 290.002 90.7222C288.039 89.8333 286.391 88.5 285.058 86.7222C283.687 84.9444 283.058 83.0555 283.169 81.0555C283.28 79.2036 283.724 77.574 284.502 76.1666C284.687 75.8332 285.002 75.3703 285.447 74.7777C285.484 74.6665 285.558 74.4999 285.669 74.2777C285.817 74.0184 285.928 73.8332 286.002 73.7221C288.706 68.5369 292.41 63.4998 297.113 58.6109C299.41 56.2405 301.539 54.4442 303.502 53.2219C304.799 52.4812 305.762 52.0182 306.391 51.833C307.613 51.5367 308.836 51.6664 310.058 52.2219C311.28 52.7775 312.354 53.5738 313.28 54.6108C313.317 54.6849 313.41 54.796 313.558 54.9442C313.928 55.2405 314.206 55.5368 314.391 55.8331ZM288.558 86.8333H288.669H288.558ZM297.336 65.7776L299.391 64.222C299.465 64.1479 299.595 64.0368 299.78 63.8887C300.002 63.7405 300.132 63.6479 300.169 63.6109L300.002 63.4442L300.447 63.2776C301.039 62.5368 301.502 61.9442 301.836 61.4998C301.465 61.685 301.187 61.8331 301.002 61.9442L300.947 61.8887L301.447 61.2776L301.336 61.1664L300.002 62.3331V62.2776C300.039 62.2405 300.058 62.2035 300.058 62.1664C298.947 63.2035 297.669 64.4998 296.224 66.0554C297.373 64.685 298.743 63.222 300.336 61.6664V61.6109C300.373 61.5739 300.391 61.5368 300.391 61.4998C295.095 66.4628 290.761 71.9813 287.391 78.0555L287.502 78.111L287.447 78.611C287.372 79.2777 287.484 79.7777 287.78 80.111H288.113L288.224 79.9999C287.928 79.7036 287.91 79.2407 288.169 78.611C288.243 78.4258 288.558 77.8703 289.113 76.9443C289.113 77.1295 289.132 77.2777 289.169 77.3888C289.428 76.9443 289.576 76.7036 289.613 76.6666L289.391 76.7777L289.28 76.7221C289.428 76.3147 290.021 75.2221 291.058 73.4443L291.224 73.5554L291.169 73.9999L291.28 74.0554C292.021 72.7962 292.595 71.8702 293.002 71.2776C292.854 71.0924 292.798 70.9258 292.836 70.7776C292.91 70.6295 293.039 70.5739 293.224 70.611C293.41 70.611 293.521 70.5924 293.558 70.5554L295.724 68.1665C296.058 67.8332 296.243 67.5369 296.28 67.2776C296.428 66.722 296.78 66.222 297.336 65.7776ZM302.891 66.3331C304.669 63.8516 306.058 61.7961 307.058 60.1664C307.132 60.0553 307.206 59.9257 307.28 59.7775C307.354 59.6294 307.428 59.4998 307.502 59.3887C307.317 59.5368 307.039 59.7775 306.669 60.1109C306.336 60.4442 306.076 60.7035 305.891 60.8887C303.521 63.222 301.169 65.9072 298.836 68.9443C298.799 68.9813 298.761 69.0369 298.724 69.1109C298.687 69.148 298.65 69.185 298.613 69.2221C298.613 69.2591 298.632 69.3147 298.669 69.3887C298.706 69.4628 298.743 69.5554 298.78 69.6665C298.854 69.7776 298.91 69.8517 298.947 69.8887C298.836 69.8517 298.743 69.8517 298.669 69.8887V69.9443C298.706 69.9443 298.761 69.9443 298.836 69.9443H299.002L299.058 70.1665C299.095 70.0554 299.095 69.9813 299.058 69.9443C299.206 69.9443 299.317 69.9258 299.391 69.8887C299.613 69.8147 300.021 69.5184 300.613 68.9998C301.132 68.5554 301.891 67.6665 302.891 66.3331ZM312.002 59.222L311.836 59.1109C311.984 59.0368 312.058 58.9812 312.058 58.9442C312.058 58.8331 312.039 58.6479 312.002 58.3886C312.002 58.1294 312.002 57.9257 312.002 57.7775C311.928 57.8886 311.817 58.0183 311.669 58.1664L311.613 58.1109L311.558 57.722L311.447 57.6664C311.41 57.7775 311.354 57.9257 311.28 58.1109C311.243 58.2961 311.206 58.4257 311.169 58.4998C311.169 58.4627 311.15 58.4442 311.113 58.4442C311.113 58.4442 311.113 58.4257 311.113 58.3886C310.669 59.722 310.373 60.5368 310.225 60.8331C310.669 59.2775 310.928 58.3701 311.002 58.1109L310.947 57.9998C310.058 61.3701 308.447 64.2591 306.113 66.6665L306.224 66.7776C306.224 66.8887 306.206 66.9628 306.169 66.9998C306.021 67.2961 305.91 67.5369 305.836 67.722C305.836 67.8702 305.854 67.9813 305.891 68.0554L306.002 68.1109C306.521 67.6665 307.002 67.185 307.447 66.6665C307.447 66.8146 307.465 66.9257 307.502 66.9998C307.539 66.9628 307.576 66.9072 307.613 66.8332C307.687 66.7591 307.743 66.7035 307.78 66.6665H307.669L307.558 66.6109C307.632 66.3887 307.78 66.0924 308.002 65.722C308.262 65.3517 308.428 65.0924 308.502 64.9442L308.613 65.0554L308.669 65.3331L308.78 65.4443C309.15 64.7776 309.41 64.2776 309.558 63.9442C309.299 63.722 309.225 63.5924 309.336 63.5553C309.41 63.5183 309.484 63.5183 309.558 63.5553H309.836C310.132 63.1479 310.428 62.685 310.725 62.1664C310.799 61.9072 310.817 61.722 310.78 61.6109C310.669 61.2776 310.743 60.9813 311.002 60.722C311.299 60.3516 311.558 59.9812 311.78 59.6109C311.854 59.4998 311.928 59.3701 312.002 59.222ZM333.891 50.4997C334.299 50.0923 335.04 50.1664 336.114 50.7219C337.188 51.2404 338.095 51.9442 338.836 52.833C339.614 53.6849 339.817 54.3145 339.447 54.7219C336.151 58.6479 333.799 61.8887 332.391 64.4442C331.317 66.4072 330.558 68.2406 330.114 69.9443C330.039 70.2776 329.928 70.7406 329.78 71.3332C329.632 71.9258 329.521 72.3887 329.447 72.7221C329.262 73.3147 329.243 73.9073 329.391 74.4999C329.688 74.9443 329.743 75.2777 329.558 75.4999C329.336 75.7962 328.799 75.7406 327.947 75.3332C326.428 74.5554 325.188 73.4999 324.225 72.1665C323.262 70.8332 322.891 69.3887 323.114 67.8332C323.336 66.0924 324.076 63.9998 325.336 61.5553C326.002 60.259 326.762 58.9998 327.614 57.7775C326.539 58.222 325.41 59.0183 324.225 60.1664C321.039 63.1294 318.632 66.7406 317.002 70.9998C315.41 75.2221 315.243 79.2407 316.502 83.0555C316.576 83.2777 316.725 83.7407 316.947 84.4444C317.169 85.1111 317.317 85.5926 317.391 85.8889C317.502 86.1481 317.632 86.5926 317.78 87.2222C317.928 87.8148 318.002 88.3148 318.002 88.7222C318.039 89.0926 318.039 89.537 318.002 90.0555C317.965 90.5741 317.873 91.0741 317.725 91.5556C316.984 94.0741 315.206 95.963 312.391 97.2223C310.28 98.3334 307.836 98.6112 305.058 98.0556C302.243 97.5 300.187 96.1667 298.891 94.0556C298.521 93.4259 298.595 93.1296 299.113 93.1667C299.706 93.2408 300.317 93.4815 300.947 93.8889C300.724 93.7408 300.558 93.6296 300.447 93.5556H300.391C300.576 93.5926 300.743 93.5741 300.891 93.5C300.928 93.463 301.039 93.4259 301.224 93.3889C301.41 93.3519 301.521 93.3148 301.558 93.2778C301.78 93.2037 302.113 93.1296 302.558 93.0556C303.002 92.9815 303.243 92.9445 303.28 92.9445C304.058 92.7593 305.15 92.3333 306.558 91.6667C308.187 90.8889 309.428 89.7778 310.28 88.3333C311.132 86.8889 311.391 85.3148 311.058 83.6111C310.91 82.8703 310.558 81.6481 310.002 79.9444C309.447 78.2036 309.113 76.8332 309.002 75.8332C308.78 73.7962 308.984 71.611 309.613 69.2776C310.687 65.0183 312.65 61.2035 315.502 57.8331C318.428 54.4627 321.225 52.5738 323.891 52.1664C326.151 51.833 328.336 52.5182 330.447 54.2219C331.188 53.3701 332.336 52.1293 333.891 50.4997ZM312.947 93C313.132 92.7408 313.317 92.4445 313.502 92.1111C313.539 92.0741 313.502 91.963 313.391 91.7778L313.28 91.7222C312.725 92.3148 312.095 92.8333 311.391 93.2778V92.9445C311.354 92.9815 311.299 93.0185 311.225 93.0556C311.15 93.1296 311.076 93.1852 311.002 93.2222C311.039 93.2222 311.058 93.2222 311.058 93.2222L311.169 93.2778L311.225 93.3889C311.002 93.6482 310.354 94.0741 309.28 94.6667L309.225 94.5L309.336 94.2222L309.28 94.1111C308.428 94.5185 307.817 94.7593 307.447 94.8334C307.447 95.0926 307.391 95.2593 307.28 95.3334C307.206 95.3704 307.132 95.3148 307.058 95.1667C306.984 95.0185 306.928 94.9445 306.891 94.9445C305.965 94.9445 305.28 94.926 304.836 94.8889C304.539 94.8889 304.336 94.926 304.224 95C303.928 95.2223 303.521 95.2223 303.002 95C302.891 94.926 302.669 94.7963 302.336 94.6111C302.002 94.463 301.743 94.3334 301.558 94.2222L301.058 93.8889L300.947 94.0556C300.873 93.9074 300.817 93.8334 300.78 93.8334C300.187 93.6852 299.724 93.5556 299.391 93.4445C299.428 93.5185 299.502 93.5926 299.613 93.6667C299.687 93.7778 299.743 93.8704 299.78 93.9445L299.724 94L299.224 93.8334L299.113 94C299.558 94.2963 299.91 94.5 300.169 94.6111H300.058C301.058 95.1297 302.206 95.5186 303.502 95.7778C302.243 95.6667 300.947 95.2778 299.613 94.6111H299.502C301.65 95.7963 303.965 96.2778 306.447 96.0556C308.854 95.8334 311.002 94.9445 312.891 93.3889L312.836 93.2778C312.836 93.2408 312.836 93.1852 312.836 93.1111C312.873 93.0741 312.91 93.0371 312.947 93ZM319.28 60.1664C319.428 59.7961 319.539 59.4998 319.613 59.2775C319.576 59.2775 319.502 59.2961 319.391 59.3331C319.317 59.3331 319.262 59.3516 319.225 59.3887L319.113 59.3331L319.28 58.9998L319.169 58.8886C319.132 58.9627 319.058 59.0553 318.947 59.1664C318.836 59.2775 318.743 59.3701 318.669 59.4442V59.3331C318.336 59.7035 317.873 60.2961 317.28 61.1109C317.688 60.3331 318.132 59.6294 318.613 58.9998V58.9442C316.725 61.0924 315.428 63.6294 314.725 66.5554L314.836 66.6109C314.836 66.648 314.836 66.6665 314.836 66.6665L314.891 66.7776L315.058 67.4443C315.058 67.4813 315.132 67.5369 315.28 67.6109H315.447C315.595 66.9443 315.725 66.4443 315.836 66.1109L316.058 66.3331C316.058 66.2961 316.058 66.2406 316.058 66.1665C316.058 66.0924 316.076 66.0368 316.113 65.9998C316.076 65.9998 316.058 66.0183 316.058 66.0554C316.058 66.0554 316.039 66.0554 316.002 66.0554L315.836 65.9998C315.799 65.8517 315.873 65.3702 316.058 64.5554L316.225 64.6109L316.391 64.8331L316.502 64.8887C316.539 64.7405 316.595 64.5368 316.669 64.2776C316.743 63.9813 316.799 63.7776 316.836 63.6665C316.539 63.5183 316.428 63.4072 316.502 63.3331C316.539 63.2961 316.613 63.2961 316.725 63.3331H317.002C317.188 63.1109 317.428 62.7776 317.725 62.3331C317.799 62.1479 317.817 61.9998 317.78 61.8887C317.669 61.5924 317.743 61.3516 318.002 61.1664C318.262 60.9442 318.558 60.7405 318.891 60.5553C318.928 60.5553 318.984 60.5183 319.058 60.4442C319.132 60.3701 319.188 60.3331 319.225 60.3331L319.058 60.1664H319.28ZM328.225 55.9442C328.225 55.8331 328.021 55.6479 327.614 55.3886L327.558 55.4442L328.336 56.0553C328.262 55.759 328.225 55.722 328.225 55.9442ZM330.78 61.7776C330.854 61.3331 330.91 60.9813 330.947 60.722C330.91 60.759 330.836 60.8146 330.725 60.8887C330.651 60.9257 330.595 60.9627 330.558 60.9998L330.502 60.9442L330.558 60.5553L330.447 60.4442C330.41 60.5183 330.336 60.6479 330.225 60.8331C330.151 60.9813 330.077 61.0924 330.002 61.1664C330.002 61.1294 329.984 61.1109 329.947 61.1109C329.947 61.1109 329.947 61.0924 329.947 61.0553C329.762 61.3516 329.539 61.7776 329.28 62.3331C329.021 62.8516 328.854 63.1665 328.78 63.2776C329.002 62.685 329.373 61.8331 329.891 60.722V60.6664C329.077 62.185 328.354 63.6479 327.725 65.0554C327.132 66.3887 326.799 67.1295 326.725 67.2776C326.28 68.4628 326.225 69.3702 326.558 69.9998L326.725 69.9443C326.725 69.9813 326.743 69.9998 326.78 69.9998C326.817 69.9998 326.854 70.0184 326.891 70.0554C327.151 70.2406 327.391 70.3332 327.614 70.3332C327.688 70.3332 327.762 70.2591 327.836 70.111V69.9998C327.465 69.8517 327.28 69.5184 327.28 68.9998H327.391C327.465 68.9998 327.521 69.0184 327.558 69.0554V68.8332L327.447 68.8887H327.28C327.206 68.8146 327.169 68.7035 327.169 68.5554C327.206 68.3702 327.243 68.2406 327.28 68.1665C327.317 68.0554 327.354 67.9258 327.391 67.7776C327.428 67.5924 327.465 67.4443 327.502 67.3332L327.669 67.3887L327.78 67.6109L327.891 67.6665L328.336 66.222C328.039 66.0368 327.947 65.9072 328.058 65.8331C328.095 65.8331 328.151 65.8331 328.225 65.8331H328.502C328.947 65.0924 329.206 64.6665 329.28 64.5554C329.354 64.4072 329.354 64.2405 329.28 64.0554C329.169 63.7591 329.243 63.4813 329.502 63.222L330.391 62.3331C330.428 62.2961 330.465 62.2405 330.502 62.1664C330.577 62.0924 330.632 62.0368 330.669 61.9998L330.502 61.8887C330.539 61.8887 330.595 61.8702 330.669 61.8331L330.78 61.7776ZM337.225 31.7218C338.003 31.7218 338.595 31.7033 339.003 31.6662C338.965 31.6662 338.891 31.6662 338.78 31.6662C338.706 31.6662 338.651 31.6847 338.614 31.7218C344.614 31.4625 348.651 31.3514 350.725 31.3884C347.799 31.4625 343.41 31.6847 337.558 32.0551L337.225 31.7218ZM362.225 21.9995V21.8884C360.558 24.9254 359.151 27.8514 358.003 30.6662C357.336 30.5921 356.336 30.5181 355.003 30.444C354.225 30.3699 353.466 30.4255 352.725 30.6107C351.688 30.8699 350.317 30.9255 348.614 30.7773C347.317 30.7033 345.373 30.6292 342.78 30.5551H340.614L340.558 30.7773C339.965 30.7033 339.632 30.6662 339.558 30.6662C339.262 30.7033 338.762 30.7773 338.058 30.8884C337.354 30.9625 336.817 31.0181 336.447 31.0551C336.336 30.944 336.262 30.8514 336.225 30.7773C335.854 30.3699 335.595 29.9625 335.447 29.5551C335.299 29.1106 335.41 28.7773 335.78 28.5551C336.262 28.3329 336.836 28.1477 337.502 27.9995C338.206 27.8514 338.799 27.7588 339.28 27.7217C339.799 27.6847 340.484 27.6477 341.336 27.6106C342.225 27.5736 342.817 27.5366 343.114 27.4995C346.151 27.2773 348.391 27.1662 349.836 27.1662C350.021 27.1662 350.299 27.1847 350.669 27.2217C351.04 27.2217 351.317 27.2217 351.503 27.2217C353.206 23.7032 354.91 20.3698 356.614 17.2217C356.577 17.1846 356.503 17.1291 356.392 17.055C356.28 16.9439 356.188 16.8513 356.114 16.7772C355.817 16.4809 355.521 16.1291 355.225 15.7217C354.966 15.4254 354.817 15.1105 354.78 14.7772C354.706 14.592 354.725 14.3698 354.836 14.1105C355.206 13.8513 355.743 13.4994 356.447 13.055C357.188 12.6105 357.743 12.2587 358.114 11.9994C358.373 11.7772 358.669 11.7031 359.003 11.7772C359.077 11.7772 359.188 11.7957 359.336 11.8327C359.521 11.8698 359.651 11.8883 359.725 11.8883C360.28 12.1105 360.855 12.3883 361.447 12.7216C361.558 12.7957 361.706 12.9068 361.892 13.055C362.077 13.1661 362.225 13.2587 362.336 13.3327C362.632 13.555 363.04 13.9253 363.558 14.4439L363.78 14.6661C363.818 14.7402 363.91 14.8698 364.058 15.055C364.243 15.2031 364.373 15.3328 364.447 15.4439V15.4994L364.78 15.9994C364.966 16.4439 365.003 16.7957 364.892 17.055C364.484 18.2402 363.836 19.7402 362.947 21.555H362.836C362.688 21.8513 362.503 22.1661 362.28 22.4995V22.3884L360.614 25.3884C360.799 24.9069 361.336 23.7773 362.225 21.9995ZM386.058 38.3885C386.466 38.9811 386.392 39.2589 385.836 39.2218C385.207 39.1848 384.614 38.9626 384.058 38.5552C383.17 37.8885 382.318 37.3329 381.503 36.8885C380.91 36.4811 380.225 36.0737 379.447 35.6663C379.521 35.6663 379.781 35.7033 380.225 35.7774C379.262 35.2588 378.707 34.9625 378.558 34.8885C378.744 35.0737 378.873 35.1848 378.947 35.2218L378.836 35.3329C376.021 34.2588 373.355 33.4625 370.836 32.944V32.7773H371.725V32.6107C369.836 32.1662 367.41 31.7773 364.447 31.444C364.299 31.6292 364.058 31.7218 363.725 31.7218C363.392 31.7218 363.114 31.6292 362.892 31.444C362.595 31.2588 362.429 31.1662 362.392 31.1662C361.614 31.0551 360.577 30.9255 359.28 30.7773L359.725 29.2773C359.614 29.2032 359.521 29.1292 359.447 29.0551C359.41 28.981 359.41 28.9255 359.447 28.8884C359.521 28.8143 359.614 28.7773 359.725 28.7773C359.91 28.7773 360.003 28.7588 360.003 28.7218C360.077 28.6106 360.169 28.444 360.28 28.2218C360.429 27.9625 360.54 27.7773 360.614 27.6662C362.058 27.8143 363.188 27.944 364.003 28.0551C369.077 28.7958 373.188 29.8514 376.336 31.2218C381.077 33.3329 384.318 35.7218 386.058 38.3885ZM360.447 31.9996C364.151 32.3329 367.966 32.981 371.892 33.944C371.929 33.9811 372.003 33.9996 372.114 33.9996C372.225 33.9996 372.299 34.0181 372.336 34.0551C370.781 33.7959 368.484 33.5181 365.447 33.2218C363.003 32.9255 360.577 32.7588 358.169 32.7218L358.336 31.8884C358.558 31.8884 358.91 31.907 359.392 31.944C359.873 31.981 360.225 31.9996 360.447 31.9996ZM337.614 32.0551C345.54 31.6107 352.188 31.5366 357.558 31.8329C357.484 32.0551 357.354 32.407 357.169 32.8885C356.984 33.3329 356.836 33.6848 356.725 33.944L356.892 33.9996V34.1107C351.077 46.2219 346.595 56.0368 343.447 63.5553C340.595 70.2961 338.503 75.7777 337.169 79.9999C336.54 81.8888 336.132 83.6666 335.947 85.3333C335.873 85.8518 335.836 86.2592 335.836 86.5555C336.502 86.3333 337.373 85.9259 338.447 85.3333C339.521 84.7777 340.873 83.9074 342.503 82.7222C343.688 81.8703 344.984 80.8703 346.391 79.7221C346.762 79.3888 347.354 78.8518 348.169 78.111C348.984 77.3703 349.614 76.8147 350.058 76.4443C350.28 76.2962 350.632 76.4073 351.114 76.7777C351.595 77.111 351.78 77.4073 351.669 77.6666C351.373 78.3332 350.41 79.7777 348.78 81.9999C348.04 83.037 346.91 84.2777 345.391 85.7222C344.984 86.0926 344.354 86.6666 343.503 87.4444C342.688 88.2222 342.077 88.7963 341.669 89.1667C340.077 90.6852 338.632 91.3704 337.336 91.2222C336.262 91.1111 335.243 90.6296 334.28 89.7778C332.984 88.8889 331.91 87.8148 331.058 86.5555C330.169 85.2592 329.669 83.9259 329.558 82.5555C329.447 81.2221 329.743 79.1851 330.447 76.4443C331.558 72.2591 333.651 66.4998 336.725 59.1664C339.54 52.5738 342.577 45.87 345.836 39.0552C346.169 38.3885 346.651 37.37 347.28 35.9996C347.947 34.5922 348.447 33.5366 348.78 32.8329C348.558 32.8699 348.225 32.8885 347.78 32.8885C347.336 32.8885 347.003 32.907 346.78 32.944C346.373 32.981 345.725 33.0551 344.836 33.1662C343.947 33.2773 343.151 33.3514 342.447 33.3885C341.78 33.4255 341.132 33.4255 340.503 33.3885C339.688 33.3514 338.725 32.907 337.614 32.0551ZM345.669 44.833C345.78 44.4626 345.947 43.9071 346.169 43.1663C346.391 42.4256 346.54 41.9441 346.614 41.7219L345.836 42.8885L345.725 42.833L346.114 41.7219L345.947 41.6663C345.503 42.7033 345.151 43.4996 344.891 44.0552C344.891 44.0182 344.891 43.9626 344.891 43.8885L344.947 43.7774L341.836 50.9441C342.206 49.9441 342.762 48.5367 343.503 46.7219C344.28 44.9071 344.799 43.6663 345.058 42.9996V42.7774C344.725 43.5922 343.799 45.796 342.28 49.3886C340.762 52.9812 339.669 55.5368 339.003 57.0553C338.373 58.5368 337.447 60.5924 336.225 63.222C335.002 65.8517 333.854 68.2221 332.78 70.3332L332.891 70.3887C332.891 70.4628 332.873 70.5739 332.836 70.7221C332.799 70.8332 332.762 70.9258 332.725 70.9998L331.891 73.0554C331.854 73.0925 331.891 73.2591 332.002 73.5554H332.114C333.854 70.2961 334.762 68.5924 334.836 68.4443V68.9998C335.095 68.5183 335.28 68.1665 335.391 67.9443L335.169 68.1665L335.002 68.1109C335.225 67.4443 335.595 66.5183 336.114 65.3331C336.632 64.1109 336.947 63.3702 337.058 63.1109L337.225 63.222V63.7776L337.336 63.8331C337.558 63.2776 337.873 62.4813 338.28 61.4442C338.725 60.3701 339.003 59.7035 339.114 59.4442C338.965 59.2961 338.91 59.1109 338.947 58.8886C338.984 58.6664 339.114 58.5183 339.336 58.4442C339.521 58.3331 339.632 58.259 339.669 58.222C340.151 57.296 340.836 55.8701 341.725 53.9442C341.984 53.4256 342.114 52.9442 342.114 52.4997C342.114 51.796 342.391 50.9627 342.947 49.9997L344.78 46.7219C344.854 46.5737 344.966 46.3515 345.114 46.0552C345.262 45.7589 345.354 45.5552 345.391 45.4441L345.225 45.333C345.262 45.2589 345.336 45.1848 345.447 45.1108C345.558 44.9997 345.632 44.9071 345.669 44.833ZM390.17 76.4999C390.392 76.3147 390.725 76.4073 391.17 76.7777C391.651 77.111 391.836 77.4073 391.725 77.6666C390.688 79.9258 388.651 82.574 385.614 85.6111C385.281 85.9444 384.762 86.4259 384.058 87.0555C383.355 87.6852 382.818 88.1666 382.447 88.5C381.151 89.7222 380.04 90.5556 379.114 91C378.077 91.4815 376.744 91.2778 375.114 90.3889C375.114 90.3518 375.132 90.3333 375.169 90.3333C375.206 90.3333 375.244 90.3148 375.281 90.2778L375.169 90.2222L375.114 90.3333L375.058 90.3889C375.021 90.3518 374.947 90.3148 374.836 90.2778C374.725 90.2037 374.651 90.1481 374.614 90.1111L374.781 90.0555L374.892 89.9444C374.818 89.9074 374.744 89.8704 374.669 89.8333C374.595 89.7963 374.521 89.7778 374.447 89.7778C374.373 89.8148 374.318 89.8518 374.281 89.8889L374.225 89.8333L374.392 89.6667C374.392 89.6296 374.373 89.5555 374.336 89.4444C374.336 89.3333 374.318 89.2592 374.281 89.2222C374.281 89.1852 374.206 89.1852 374.058 89.2222C373.836 89.2592 373.725 89.2222 373.725 89.1111C373.762 89.0741 373.781 89 373.781 88.8889C373.781 88.7778 373.799 88.7037 373.836 88.6666L373.892 88.6111C373.892 88.5741 373.892 88.537 373.892 88.5L373.669 88.6111L373.836 88.5C373.799 88.4629 373.706 88.4444 373.558 88.4444C373.447 88.4074 373.373 88.3889 373.336 88.3889L373.169 88.5555L373.114 88.6111L372.947 88.5555L372.781 88.6111L372.892 88.8333H372.836C371.392 87.6111 370.484 86.3148 370.114 84.9444C369.706 83.6111 369.799 81.9814 370.392 80.0555C370.984 78.2036 371.466 76.8147 371.836 75.8888C371.169 76.5925 369.743 77.9999 367.558 80.111C365.373 82.2222 363.725 83.8888 362.614 85.1111C361.243 86.5926 359.632 88.2222 357.78 90C357.743 90.037 357.632 90.1296 357.447 90.2778C357.299 90.4259 357.188 90.537 357.114 90.6111C357.04 90.6481 356.91 90.7222 356.725 90.8333C356.577 90.9444 356.447 91.037 356.336 91.1111V91.3333L356.28 91.3889C356.243 91.4259 356.206 91.4444 356.169 91.4444V91.3889C356.132 91.2778 356.077 91.2222 356.003 91.2222C355.892 91.2222 355.762 91.2222 355.614 91.2222C355.503 91.2222 355.373 91.2222 355.225 91.2222C355.114 91.2222 355.021 91.2222 354.947 91.2222C354.836 91.2222 354.725 91.2963 354.614 91.4444C354.429 91.7037 354.206 91.7593 353.947 91.6111C353.836 91.537 353.688 91.4259 353.503 91.2778C353.354 91.1296 353.262 91.0556 353.225 91.0556C353.151 90.9815 353.077 90.9259 353.003 90.8889L352.892 91.0556C352.892 90.9074 352.873 90.8333 352.836 90.8333C352.54 90.8333 352.299 90.8148 352.114 90.7778C351.373 90.2222 350.817 89.6852 350.447 89.1667C350.447 89.1296 350.429 89.0926 350.391 89.0555C350.354 88.9815 350.317 88.9259 350.28 88.8889C350.095 88.7407 349.854 88.5185 349.558 88.2222C348.077 86.7407 347.28 85.4444 347.169 84.3333C347.095 83.6296 347.317 82.3888 347.836 80.611C348.466 78.4258 349.651 75.8888 351.391 72.9999C354.169 68.4072 357.28 64.0739 360.725 59.9998C362.836 57.5183 364.614 55.6664 366.058 54.4442C368.614 52.333 370.669 51.3886 372.225 51.6108C372.818 51.7219 373.484 51.9442 374.225 52.2775C374.595 52.4997 374.873 52.7034 375.058 52.8886C374.947 52.8145 374.762 52.7219 374.503 52.6108C374.244 52.4997 374.058 52.4071 373.947 52.333L373.892 52.3886C375.188 53.0923 376.114 54.0553 376.669 55.2775L376.836 55.222C376.873 55.222 376.892 55.2405 376.892 55.2775C376.892 55.2775 376.91 55.2775 376.947 55.2775C376.984 55.2775 377.04 55.3145 377.114 55.3886C377.188 55.4257 377.262 55.4627 377.336 55.4997C377.447 55.4627 377.54 55.4442 377.614 55.4442L377.725 55.3886C377.688 55.3145 377.651 55.222 377.614 55.1108C377.577 54.9997 377.54 54.9257 377.503 54.8886C378.058 55.6294 378.392 56.3516 378.503 57.0553C378.54 57.4257 378.521 57.796 378.447 58.1664C378.41 58.5368 378.281 58.9257 378.058 59.3331C377.873 59.7405 377.707 60.0738 377.558 60.3331C377.41 60.5553 377.169 60.9072 376.836 61.3887C376.54 61.8331 376.355 62.1294 376.281 62.2776C373.725 66.3146 370.336 69.5924 366.114 72.111C366.003 72.185 365.818 72.111 365.558 71.8887C365.299 71.6665 365.206 71.4999 365.28 71.3887C367.318 68.6109 369.04 65.8146 370.447 62.9998C371.04 61.8146 371.521 60.6109 371.892 59.3887C371.151 60.0924 370.114 61.185 368.781 62.6665C366.929 64.7405 364.818 67.4257 362.447 70.7221C360.04 74.2036 358.169 77.1851 356.836 79.6666C355.873 81.4814 355.151 83.0925 354.669 84.5C354.669 84.537 354.669 84.5925 354.669 84.6666C354.669 84.7037 354.651 84.7407 354.614 84.7777C358.169 82.2222 362.169 79.0369 366.614 75.2221C367.132 74.7777 368.04 73.9814 369.336 72.8332C370.669 71.648 371.706 70.7406 372.447 70.111C374.484 68.3332 375.688 67.2776 376.058 66.9443C376.095 66.9072 376.132 66.8887 376.169 66.8887C376.725 66.3331 377.947 66.7406 379.836 68.1109C380.725 68.7776 381.336 69.3887 381.669 69.9443C382.077 70.611 382.188 71.0739 382.003 71.3332C381.855 71.9628 381.244 73.4813 380.169 75.8888C379.281 78.0369 378.632 79.6481 378.225 80.7221C377.484 82.7962 377.003 84.3703 376.781 85.4444C376.744 85.5926 376.688 85.8518 376.614 86.2222C377.577 85.7777 378.281 85.4444 378.725 85.2222C379.91 84.5925 381.225 83.7592 382.67 82.7222C384.003 81.7962 385.281 80.7962 386.503 79.7221C386.725 79.537 387.262 79.0555 388.114 78.2777C389.003 77.4629 389.688 76.8703 390.17 76.4999ZM354.225 76.9443L355.114 74.9999C355.003 74.9258 354.929 74.8332 354.892 74.7221C354.854 74.611 354.854 74.5369 354.892 74.4999C354.966 74.4628 355.058 74.4443 355.169 74.4443H355.447C355.521 74.3332 355.725 74.0739 356.058 73.6665C356.392 73.2221 356.632 72.8888 356.78 72.6665C356.929 72.4443 356.984 72.2221 356.947 71.9999C356.91 71.5554 357.077 71.185 357.447 70.8887C357.595 70.7776 357.799 70.5924 358.058 70.3332C358.355 70.0369 358.577 69.8147 358.725 69.6665C358.762 69.5924 358.836 69.4998 358.947 69.3887C359.058 69.2776 359.132 69.2035 359.169 69.1665L359.003 69.0554L359.336 68.8887C359.632 68.0739 359.817 67.5924 359.892 67.4443C359.817 67.4813 359.725 67.5554 359.614 67.6665C359.503 67.7776 359.41 67.8517 359.336 67.8887L359.28 67.7776L359.503 67.2776L359.336 67.222C359.151 67.4813 358.91 67.7961 358.614 68.1665C358.614 68.1295 358.614 68.1109 358.614 68.1109C358.651 68.1109 358.669 68.0924 358.669 68.0554C358.188 68.7221 357.503 69.7221 356.614 71.0554C357.132 70.0924 357.817 68.9443 358.669 67.6109V67.4998C356.114 71.2036 353.688 75.2221 351.391 79.5555L351.503 79.611C351.503 79.6481 351.484 79.7036 351.447 79.7777C351.447 79.8147 351.447 79.8518 351.447 79.8888C351.373 80.074 351.299 80.4258 351.225 80.9444C351.225 80.9814 351.243 81.0184 351.28 81.0555C351.354 81.1296 351.391 81.1851 351.391 81.2221L351.558 81.2777C352.077 80.2407 352.484 79.4629 352.78 78.9444L352.892 79.2777C352.929 79.2407 352.966 79.1666 353.003 79.0555C353.077 78.9444 353.132 78.8518 353.169 78.7777C353.132 78.8147 353.077 78.8332 353.003 78.8332L352.892 78.7777C352.892 78.7036 353.206 77.9443 353.836 76.4999L354.003 76.5554L354.058 76.8888L354.225 76.9443ZM375.836 78.9999C375.429 78.8518 375.318 78.7221 375.503 78.611C375.54 78.574 375.614 78.5555 375.725 78.5555C375.91 78.5555 376.003 78.5369 376.003 78.4999L376.669 76.6666C376.744 76.4073 376.744 76.2036 376.669 76.0554C376.484 75.7221 376.521 75.3703 376.781 74.9999C376.892 74.8517 377.04 74.6295 377.225 74.3332C377.41 74.0369 377.558 73.8147 377.669 73.6665C377.707 73.5925 377.744 73.5184 377.781 73.4443C377.855 73.3702 377.91 73.2962 377.947 73.2221L377.725 73.111C377.91 73.0369 378.003 72.9813 378.003 72.9443C378.077 72.3517 378.132 71.8887 378.169 71.5554L377.725 71.9999L377.669 71.9443L377.725 71.4999L377.558 71.4443C377.447 71.7776 377.318 72.0925 377.169 72.3887C377.169 72.3517 377.151 72.3332 377.114 72.3332C377.114 72.3332 377.114 72.3147 377.114 72.2776C376.855 72.9443 376.503 73.9443 376.058 75.2777C376.318 74.1665 376.651 73.0369 377.058 71.8887L377.003 71.8332V71.7776C376.373 73.4813 375.744 75.4628 375.114 77.7221C374.929 78.3888 374.688 79.3888 374.392 80.7221C374.169 81.6851 374.058 82.2036 374.058 82.2777C373.984 82.9814 374.077 83.574 374.336 84.0555L374.447 83.9999C374.484 84.037 374.558 84.0925 374.669 84.1666C374.966 84.4259 375.281 84.5185 375.614 84.4444C375.651 84.4444 375.669 84.4074 375.669 84.3333C375.706 84.2592 375.725 84.2037 375.725 84.1666V84.0555C375.54 84.0555 375.355 83.9444 375.169 83.7222C375.021 83.4629 374.966 83.1666 375.003 82.8333C375.04 82.8703 375.132 82.9259 375.281 82.9999V82.611L375.169 82.7222L375.003 82.6666C374.929 82.3333 374.892 82.111 374.892 81.9999C374.929 81.8518 374.966 81.611 375.003 81.2777C375.077 80.9444 375.114 80.7036 375.114 80.5555L375.281 80.611L375.447 80.8888H375.614C375.688 79.9999 375.762 79.3703 375.836 78.9999Z" fill="white"/>
    </g>
    <g filter="url(#filter1_d)">
        <line x1="393" y1="24.7574" x2="398.657" y2="19.1005" stroke="white" stroke-width="6" stroke-linecap="round"/>
        <line x1="395.746" y1="34.9027" x2="403.72" y2="34.252" stroke="white" stroke-width="6" stroke-linecap="round"/>
    </g>
    <path d="M135.81 95.46V111.03H138.96V95.46H147.39C147.3 97.92 147.21 99.51 147.15 100.23C147.09 101.49 146.91 102.33 146.61 102.69C146.34 102.99 145.89 103.17 145.26 103.17C144.12 103.17 143.01 103.14 141.9 103.11L142.8 106.23C144.06 106.17 145.14 106.14 146.01 106.14C147.48 106.14 148.5 105.87 149.04 105.33C149.58 104.79 149.88 103.8 150 102.36C150.15 101.28 150.33 97.98 150.54 92.43H127.65V95.46H135.81ZM126.33 85.95V89.01H132.84V91.44H136.02V89.01H142.98V91.47H146.16V89.01H152.67V85.95H146.16V83.43H142.98V85.95H136.02V83.43H132.84V85.95H126.33ZM162 94.89C161.34 94.89 160.8 95.1 160.38 95.58C159.9 96 159.69 96.54 159.69 97.2C159.69 97.83 159.9 98.37 160.38 98.82C160.8 99.27 161.34 99.51 162 99.51C162.63 99.51 163.17 99.27 163.62 98.82C164.07 98.37 164.31 97.83 164.31 97.2C164.31 96.54 164.07 96 163.62 95.58C163.17 95.1 162.63 94.89 162 94.89ZM194.55 84.3H175.02V111.03H178.17V108.93H191.4V111H194.55V84.3ZM178.17 105.87V97.8H191.4V105.87H178.17ZM178.17 94.74V87.36H191.4V94.74H178.17ZM207 94.89C206.34 94.89 205.8 95.1 205.38 95.58C204.9 96 204.69 96.54 204.69 97.2C204.69 97.83 204.9 98.37 205.38 98.82C205.8 99.27 206.34 99.51 207 99.51C207.63 99.51 208.17 99.27 208.62 98.82C209.07 98.37 209.31 97.83 209.31 97.2C209.31 96.54 209.07 96 208.62 95.58C208.17 95.1 207.63 94.89 207 94.89ZM233.61 83.31V86.25H228.72V89.1H233.61V91.71H227.07V94.65H243.27V91.71H236.76V89.1H241.95V86.25H236.76V83.31H233.61ZM227.73 97.29V100.23H236.79V107.01C236.79 107.79 236.49 108.18 235.89 108.18C234.81 108.18 233.67 108.09 232.5 107.97L233.13 110.91H236.94C238.86 110.91 239.85 109.86 239.85 107.76V100.23H242.97V97.29H239.85V95.67H236.79V97.29H227.73ZM230.4 100.95L227.97 102.48C229.41 104.16 230.55 105.72 231.39 107.13L233.88 105.39C233.04 104.13 231.9 102.66 230.4 100.95ZM219.15 92.31H221.07V99.48C219.27 100.02 217.47 100.44 215.61 100.77L216.36 103.8C217.95 103.38 219.51 102.9 221.07 102.39V111.12H224.1V101.31C224.88 101.01 225.69 100.68 226.5 100.35V97.41C225.72 97.77 224.94 98.1 224.1 98.43V92.31H226.35V89.31H224.1V83.4H221.07V89.31H219.57C219.69 88.23 219.75 87.09 219.81 85.95L216.99 85.74C216.87 89.22 216.36 92.55 215.46 95.7L218.19 96.48C218.58 95.13 218.91 93.75 219.15 92.31ZM252 94.89C251.34 94.89 250.8 95.1 250.38 95.58C249.9 96 249.69 96.54 249.69 97.2C249.69 97.83 249.9 98.37 250.38 98.82C250.8 99.27 251.34 99.51 252 99.51C252.63 99.51 253.17 99.27 253.62 98.82C254.07 98.37 254.31 97.83 254.31 97.2C254.31 96.54 254.07 96 253.62 95.58C253.17 95.1 252.63 94.89 252 94.89ZM269.61 89.4V92.46H273.15V98.52H268.8V101.55H288.39V98.52H283.89V92.46H287.55V89.4H283.89V83.43H280.74V89.4H276.33V83.43H273.15V89.4H269.61ZM276.33 98.52V92.46H280.74V98.52H276.33ZM282.54 101.88L279.96 103.5C282.24 106.32 284.04 108.87 285.36 111.15L288.18 109.17C286.86 107.1 285 104.67 282.54 101.88ZM274.11 102.15C272.61 104.91 270.84 107.28 268.8 109.26L271.53 111.24C273.63 109.05 275.43 106.47 276.96 103.53L274.11 102.15ZM263.94 95.58V111.12H267.12V90.99C268.32 88.92 269.31 86.73 270.06 84.45L267.09 83.07C265.62 87.69 263.37 91.71 260.34 95.1L261.36 98.46C262.26 97.5 263.13 96.54 263.94 95.58Z" fill="#1D1D38"/>
    <defs>
        <filter id="filter0_d" x="1.85156" y="0.90625" width="399.906" height="113.445" filterUnits="userSpaceOnUse" color-interpolation-filters="sRGB">
            <feFlood flood-opacity="0" result="BackgroundImageFix"/>
            <feColorMatrix in="SourceAlpha" type="matrix" values="0 0 0 0 0 0 0 0 0 0 0 0 0 0 0 0 0 0 127 0" result="hardAlpha"/>
            <feOffset dy="1"/>
            <feGaussianBlur stdDeviation="5"/>
            <feComposite in2="hardAlpha" operator="out"/>
            <feColorMatrix type="matrix" values="0 0 0 0 0 0 0 0 0 0 0 0 0 0 0 0 0 0 0.1 0"/>
            <feBlend mode="normal" in2="BackgroundImageFix" result="effect1_dropShadow"/>
            <feBlend mode="normal" in="SourceGraphic" in2="effect1_dropShadow" result="shape"/>
        </filter>
        <filter id="filter1_d" x="378.758" y="5.85938" width="38.1953" height="43.2773" filterUnits="userSpaceOnUse" color-interpolation-filters="sRGB">
            <feFlood flood-opacity="0" result="BackgroundImageFix"/>
            <feColorMatrix in="SourceAlpha" type="matrix" values="0 0 0 0 0 0 0 0 0 0 0 0 0 0 0 0 0 0 127 0" result="hardAlpha"/>
            <feOffset dy="1"/>
            <feGaussianBlur stdDeviation="5"/>
            <feComposite in2="hardAlpha" operator="out"/>
            <feColorMatrix type="matrix" values="0 0 0 0 0 0 0 0 0 0 0 0 0 0 0 0 0 0 0.1 0"/>
            <feBlend mode="normal" in2="BackgroundImageFix" result="effect1_dropShadow"/>
            <feBlend mode="normal" in="SourceGraphic" in2="effect1_dropShadow" result="shape"/>
        </filter>
        <linearGradient id="paint0_linear" x1="19" y1="91" x2="395" y2="90.9999" gradientUnits="userSpaceOnUse">
            <stop stop-color="#91E8B3"/>
            <stop offset="1" stop-color="#C0E57B"/>
            <stop offset="1" stop-color="#C0E57B"/>
        </linearGradient>
    </defs>
</svg>
