<svg width="46" height="48" viewBox="0 0 46 48" fill="none" xmlns="http://www.w3.org/2000/svg">
<circle cx="26.6031" cy="28.6031" r="18.4" fill="#E47F10"/>
<path fill-rule="evenodd" clip-rule="evenodd" d="M27.056 10.2101C23.7849 8.75258 20.1303 8.39151 16.6373 9.18072C13.1442 9.96993 9.99986 11.8671 7.67313 14.5894C5.34641 17.3117 3.962 20.7131 3.72638 24.2865C3.49075 27.8598 4.41654 31.4136 6.36566 34.4178C8.31478 37.422 11.1828 39.7157 14.542 40.9567C17.9012 42.1977 21.5715 42.3197 25.0057 41.3043C28.4398 40.2889 31.4538 38.1907 33.598 35.3224C35.7422 32.4542 36.9018 28.9697 36.9038 25.3886V23.6921C36.9038 22.673 37.7299 21.8469 38.749 21.8469C39.7681 21.8469 40.5942 22.673 40.5942 23.6921V25.3897C40.5917 29.7666 39.1744 34.0265 36.5537 37.5321C33.933 41.0377 30.2493 43.6022 26.052 44.8432C21.8547 46.0842 17.3687 45.9352 13.2631 44.4184C9.1574 42.9016 5.65204 40.0982 3.26978 36.4264C0.887523 32.7546 -0.243989 28.4111 0.0439976 24.0436C0.331984 19.6762 2.02404 15.5189 4.86781 12.1917C7.71158 8.86448 11.5547 6.54567 15.824 5.58108C20.0933 4.61648 24.56 5.0578 28.558 6.8392C29.4889 7.25396 29.9072 8.34479 29.4925 9.27564C29.0777 10.2065 27.9869 10.6249 27.056 10.2101Z" fill="#1D1D38"/>
<line x1="20.7626" y1="2.63373" x2="20.7626" y2="24.6291" stroke="#1D1D38" stroke-width="3.6659" stroke-linecap="round"/>
<circle cx="20.7619" cy="35.6252" r="3.05491" fill="#1D1D38"/>
</svg>
