<svg width="68" height="69" viewBox="0 0 68 69" fill="none" xmlns="http://www.w3.org/2000/svg">
<path d="M46.444 56.0512C34.5394 62.9243 19.3171 58.8455 12.444 46.941C5.57086 35.0364 9.64967 19.8141 21.5542 12.941C33.4588 6.06785 48.6811 10.1467 55.5542 22.0512" stroke="url(#paint0_linear)" stroke-width="3.90625" stroke-linecap="round" stroke-linejoin="round"/>
<path d="M51.5535 44.6376C45.9549 54.3348 33.5551 57.6573 23.8579 52.0586C14.1608 46.4599 10.8383 34.0602 16.4369 24.363C22.0356 14.6658 34.4353 11.3433 44.1325 16.942" stroke="url(#paint1_linear)" stroke-width="0.78125" stroke-linecap="round" stroke-linejoin="round"/>
<circle cx="51.0871" cy="45.1799" r="6.28267" transform="rotate(60 51.0871 45.1799)" fill="url(#paint2_linear)"/>
<circle cx="46.4856" cy="18.727" r="0.861028" transform="rotate(60 46.4856 18.727)" fill="url(#paint3_linear)"/>
<path d="M29.5379 39.7631H24.4179C23.9984 39.7631 23.9886 39.7631 24.0524 39.3387C24.3909 37.1274 24.7336 34.9228 25.0803 32.7246C25.2251 31.8194 25.2962 30.892 25.6274 30.026C26.8884 26.7141 29.2558 24.7122 32.7566 24.0792C33.1135 24.0214 33.4747 23.9951 33.8361 24.0007C37.1791 24.0007 40.5237 24.0007 43.87 24.0007C44.3043 24.0007 44.3239 24.0277 44.2135 24.4546C43.9898 25.2396 43.5172 25.9308 42.8668 26.4241C42.2164 26.9174 41.4234 27.1862 40.6072 27.19C38.252 27.19 35.8797 27.19 33.5172 27.19C32.7817 27.1922 32.0548 27.3476 31.3828 27.6463C30.1218 28.2057 29.3932 29.2262 28.9295 30.47C28.4659 31.7139 28.3039 32.9528 28.1445 34.226C28.0562 34.9154 27.985 35.6072 27.8991 36.2941C27.8697 36.4978 27.8991 36.5763 28.1248 36.5836C29.7317 36.6425 31.3386 36.748 32.9455 36.6842C34.2041 36.6351 35.4454 36.461 36.6034 35.9114C37.2205 35.6327 37.7714 35.2262 38.2197 34.7187C38.668 34.2112 39.0035 33.6143 39.2039 32.9675C39.435 32.1536 39.8411 31.4001 40.3937 30.7595C40.7029 30.3917 41.0884 30.0954 41.5235 29.8912C41.9585 29.6871 42.4327 29.5799 42.9132 29.5771C43.0629 29.5771 43.1733 29.6016 43.1414 29.7856C42.9206 31.0662 42.8961 32.3934 42.452 33.6225C41.1714 37.1503 38.6592 39.2111 34.9204 39.7459C34.6865 39.7697 34.4512 39.7762 34.2163 39.7655H29.5379V39.7631Z" fill="#1D1D38"/>
<path d="M26.8209 44.0013C26.6198 44.0029 26.4204 43.9647 26.2341 43.8889C26.0479 43.8131 25.8785 43.7011 25.7357 43.5595C25.5929 43.4178 25.4796 43.2493 25.4023 43.0637C25.325 42.8781 25.2851 42.6789 25.2852 42.4778C25.2855 42.2576 25.3292 42.0396 25.4139 41.8362C25.4985 41.6329 25.6224 41.4483 25.7785 41.2929C25.9346 41.1375 26.1198 41.0144 26.3235 40.9306C26.5272 40.8468 26.7454 40.804 26.9657 40.8047C27.3716 40.8066 27.7605 40.9678 28.0487 41.2537C28.3368 41.5396 28.5012 41.9272 28.5063 42.3331C28.5063 42.5536 28.4626 42.772 28.3777 42.9755C28.2928 43.179 28.1684 43.3637 28.0116 43.5188C27.8549 43.674 27.669 43.7965 27.4646 43.8793C27.2602 43.9621 27.0414 44.0036 26.8209 44.0013Z" fill="#1D1D38"/>
<path d="M36.2067 44.0013C36.0034 44.0016 35.8021 43.9619 35.6141 43.8844C35.4262 43.8069 35.2554 43.6932 35.1114 43.5496C34.9674 43.4061 34.8531 43.2357 34.775 43.048C34.6969 42.8603 34.6566 42.659 34.6562 42.4557C34.6677 42.0155 34.85 41.5971 35.1646 41.2889C35.4792 40.9807 35.9013 40.8071 36.3417 40.8047C36.7525 40.8066 37.1458 40.971 37.4359 41.262C37.7259 41.5529 37.889 41.9468 37.8897 42.3576C37.8813 42.7977 37.7001 43.2169 37.3852 43.5245C37.0702 43.832 36.6469 44.0033 36.2067 44.0013Z" fill="#1D1D38"/>
<path d="M6.93491 63.132C6.15025 63.132 5.43891 62.9633 4.80091 62.626C4.17025 62.2813 3.67158 61.8083 3.30491 61.207C2.94558 60.5983 2.76591 59.9127 2.76591 59.15C2.76591 58.3873 2.94558 57.7053 3.30491 57.104C3.67158 56.4953 4.17025 56.0223 4.80091 55.685C5.43891 55.3403 6.15391 55.168 6.94591 55.168C7.61325 55.168 8.21458 55.2853 8.74991 55.52C9.29258 55.7547 9.74725 56.092 10.1139 56.532L8.96991 57.588C8.44925 56.9867 7.80391 56.686 7.03391 56.686C6.55725 56.686 6.13191 56.7923 5.75791 57.005C5.38391 57.2103 5.09058 57.5 4.87791 57.874C4.67258 58.248 4.56991 58.6733 4.56991 59.15C4.56991 59.6267 4.67258 60.052 4.87791 60.426C5.09058 60.8 5.38391 61.0933 5.75791 61.306C6.13191 61.5113 6.55725 61.614 7.03391 61.614C7.80391 61.614 8.44925 61.3097 8.96991 60.701L10.1139 61.757C9.74725 62.2043 9.29258 62.5453 8.74991 62.78C8.20725 63.0147 7.60225 63.132 6.93491 63.132ZM16.2379 61.35H12.6629L11.9809 63H10.1549L13.5869 55.3H15.3469L18.7899 63H16.9199L16.2379 61.35ZM15.6769 59.997L14.4559 57.049L13.2349 59.997H15.6769ZM24.4948 63L23.0098 60.855H22.9218H21.3708V63H19.5888V55.3H22.9218C23.6038 55.3 24.1941 55.4137 24.6928 55.641C25.1988 55.8683 25.5874 56.191 25.8588 56.609C26.1301 57.027 26.2658 57.522 26.2658 58.094C26.2658 58.666 26.1264 59.161 25.8478 59.579C25.5764 59.9897 25.1878 60.305 24.6818 60.525L26.4088 63H24.4948ZM24.4618 58.094C24.4618 57.6613 24.3224 57.3313 24.0438 57.104C23.7651 56.8693 23.3581 56.752 22.8228 56.752H21.3708V59.436H22.8228C23.3581 59.436 23.7651 59.3187 24.0438 59.084C24.3224 58.8493 24.4618 58.5193 24.4618 58.094ZM32.5836 63L31.0986 60.855H31.0106H29.4596V63H27.6776V55.3H31.0106C31.6926 55.3 32.283 55.4137 32.7816 55.641C33.2876 55.8683 33.6763 56.191 33.9476 56.609C34.219 57.027 34.3546 57.522 34.3546 58.094C34.3546 58.666 34.2153 59.161 33.9366 59.579C33.6653 59.9897 33.2766 60.305 32.7706 60.525L34.4976 63H32.5836ZM32.5506 58.094C32.5506 57.6613 32.4113 57.3313 32.1326 57.104C31.854 56.8693 31.447 56.752 30.9116 56.752H29.4596V59.436H30.9116C31.447 59.436 31.854 59.3187 32.1326 59.084C32.4113 58.8493 32.5506 58.5193 32.5506 58.094ZM41.7285 61.57V63H35.7665V55.3H41.5855V56.73H37.5375V58.402H41.1125V59.788H37.5375V61.57H41.7285ZM43.1464 55.3H44.9284V61.548H48.7894V63H43.1464V55.3ZM49.7851 55.3H51.5671V61.548H55.4281V63H49.7851V55.3ZM60.0238 63.132C59.2245 63.132 58.5022 62.9597 57.8568 62.615C57.2188 62.2703 56.7165 61.7973 56.3498 61.196C55.9905 60.5873 55.8108 59.9053 55.8108 59.15C55.8108 58.3947 55.9905 57.7163 56.3498 57.115C56.7165 56.5063 57.2188 56.0297 57.8568 55.685C58.5022 55.3403 59.2245 55.168 60.0238 55.168C60.8232 55.168 61.5418 55.3403 62.1798 55.685C62.8178 56.0297 63.3202 56.5063 63.6868 57.115C64.0535 57.7163 64.2368 58.3947 64.2368 59.15C64.2368 59.9053 64.0535 60.5873 63.6868 61.196C63.3202 61.7973 62.8178 62.2703 62.1798 62.615C61.5418 62.9597 60.8232 63.132 60.0238 63.132ZM60.0238 61.614C60.4785 61.614 60.8892 61.5113 61.2558 61.306C61.6225 61.0933 61.9085 60.8 62.1138 60.426C62.3265 60.052 62.4328 59.6267 62.4328 59.15C62.4328 58.6733 62.3265 58.248 62.1138 57.874C61.9085 57.5 61.6225 57.2103 61.2558 57.005C60.8892 56.7923 60.4785 56.686 60.0238 56.686C59.5692 56.686 59.1585 56.7923 58.7918 57.005C58.4252 57.2103 58.1355 57.5 57.9228 57.874C57.7175 58.248 57.6148 58.6733 57.6148 59.15C57.6148 59.6267 57.7175 60.052 57.9228 60.426C58.1355 60.8 58.4252 61.0933 58.7918 61.306C59.1585 61.5113 59.5692 61.614 60.0238 61.614Z" fill="#1D1D38"/>
<defs>
<linearGradient id="paint0_linear" x1="46.444" y1="56.0512" x2="21.5542" y2="12.941" gradientUnits="userSpaceOnUse">
<stop stop-color="#91E8B3"/>
<stop offset="1" stop-color="#C0E57B"/>
<stop offset="1" stop-color="#C0E57B"/>
</linearGradient>
<linearGradient id="paint1_linear" x1="51.5535" y1="44.6376" x2="16.4369" y2="24.363" gradientUnits="userSpaceOnUse">
<stop stop-color="#91E8B3"/>
<stop offset="1" stop-color="#C0E57B"/>
<stop offset="1" stop-color="#C0E57B"/>
</linearGradient>
<linearGradient id="paint2_linear" x1="57.3698" y1="45.1799" x2="44.8044" y2="45.1799" gradientUnits="userSpaceOnUse">
<stop stop-color="#91E8B3"/>
<stop offset="1" stop-color="#C0E57B"/>
<stop offset="1" stop-color="#C0E57B"/>
</linearGradient>
<linearGradient id="paint3_linear" x1="47.3467" y1="18.727" x2="45.6246" y2="18.727" gradientUnits="userSpaceOnUse">
<stop stop-color="#91E8B3"/>
<stop offset="1" stop-color="#C0E57B"/>
<stop offset="1" stop-color="#C0E57B"/>
</linearGradient>
</defs>
</svg>
