<svg width="24" height="23" viewBox="0 0 24 23" fill="none" xmlns="http://www.w3.org/2000/svg">
<path d="M6.27146 17.9268H0.448646C-0.0284505 17.9268 -0.0396107 17.9268 0.0329303 17.4442C0.417956 14.9294 0.807631 12.4221 1.20196 9.92222C1.36657 8.89269 1.44748 7.83806 1.82414 6.85317C3.25822 3.08662 5.9506 0.809948 9.93199 0.0901181C10.3378 0.0243555 10.7486 -0.00552048 11.1596 0.000836792C14.9615 0.000836792 18.7653 0.000836792 22.5709 0.000836792C23.0647 0.000836792 23.087 0.0315272 22.9615 0.516994C22.707 1.40979 22.1696 2.19582 21.4299 2.75685C20.6903 3.31787 19.7885 3.62355 18.8601 3.62789C16.1817 3.62789 13.4837 3.62789 10.7969 3.62789C9.96053 3.6304 9.13385 3.80714 8.36957 4.14684C6.93549 4.78296 6.10685 5.94362 5.57953 7.35817C5.05221 8.77272 4.86807 10.1817 4.68672 11.6297C4.58627 12.4137 4.50536 13.2005 4.40771 13.9817C4.37423 14.2133 4.40771 14.3026 4.6644 14.3109C6.49187 14.3779 8.31935 14.4979 10.1468 14.4253C11.5781 14.3695 12.9899 14.1714 14.3068 13.5465C15.0086 13.2295 15.6351 12.7672 16.145 12.19C16.6548 11.6128 17.0363 10.934 17.2642 10.1984C17.527 9.27287 17.9889 8.41589 18.6174 7.6874C18.9691 7.26905 19.4074 6.93211 19.9022 6.69991C20.3969 6.46771 20.9362 6.34579 21.4828 6.3426C21.6529 6.3426 21.7785 6.3705 21.7422 6.57975C21.4911 8.03615 21.4632 9.54556 20.9582 10.9434C19.5018 14.9554 16.6448 17.2991 12.3928 17.9073C12.1268 17.9343 11.8592 17.9418 11.5921 17.9296H6.27146V17.9268Z" fill="#1D1D38"/>
<path d="M3.18284 22.7452C2.95414 22.7471 2.72734 22.7036 2.51552 22.6174C2.30369 22.5311 2.11104 22.4038 1.94867 22.2427C1.7863 22.0817 1.65743 21.89 1.56949 21.6789C1.48155 21.4678 1.43627 21.2413 1.43628 21.0126C1.43664 20.7622 1.48639 20.5142 1.58267 20.283C1.67895 20.0517 1.81987 19.8417 1.99737 19.665C2.17488 19.4883 2.38549 19.3483 2.61715 19.253C2.84881 19.1577 3.09698 19.1091 3.34746 19.1098C3.80908 19.112 4.25139 19.2954 4.57911 19.6205C4.90684 19.9456 5.09375 20.3864 5.0996 20.848C5.09961 21.0988 5.0499 21.3471 4.95334 21.5786C4.85677 21.8101 4.71528 22.0201 4.53703 22.1965C4.35878 22.3729 4.14732 22.5123 3.91488 22.6065C3.68244 22.7007 3.43363 22.7478 3.18284 22.7452V22.7452Z" fill="#1D1D38"/>
<path d="M13.8575 22.7452C13.6263 22.7456 13.3973 22.7004 13.1836 22.6123C12.9699 22.5242 12.7756 22.3948 12.6119 22.2316C12.4481 22.0684 12.3181 21.8745 12.2293 21.661C12.1405 21.4476 12.0946 21.2187 12.0942 20.9875C12.1073 20.4869 12.3146 20.011 12.6724 19.6605C13.0301 19.31 13.5102 19.1125 14.011 19.1098C14.4782 19.112 14.9256 19.299 15.2554 19.6299C15.5852 19.9608 15.7708 20.4087 15.7715 20.8759C15.762 21.3764 15.5559 21.8531 15.1977 22.2029C14.8396 22.5527 14.3582 22.7475 13.8575 22.7452V22.7452Z" fill="#1D1D38"/>
</svg>
