<svg width="200" height="199" viewBox="0 0 200 199" fill="none"
    xmlns="http://www.w3.org/2000/svg">
    <path d="M136.211 162.121C101.529 182.145 57.1824 170.262 37.1591 135.58C17.1358 100.899 29.0185 56.5522 63.6999 36.5288C98.3813 16.5055 142.728 28.3883 162.751 63.0696" stroke="#F0F0F0" stroke-width="11.419" stroke-linecap="round" stroke-linejoin="round"/>
    <path fill-rule="evenodd" clip-rule="evenodd" d="M111.816 83.8908C109.572 77.2662 102.383 73.715 95.758 75.959C89.1334 78.203 85.5822 85.3924 87.8262 92.0171C88.5144 94.0488 87.4252 96.2538 85.3935 96.9421C83.3617 97.6303 81.1567 96.5411 80.4685 94.5094C76.848 83.8212 82.5776 72.2218 93.2657 68.6013C103.954 64.9809 115.553 70.7104 119.174 81.3985C122.794 92.0867 117.065 103.686 106.377 107.307C104.345 107.995 102.14 106.906 101.452 104.874C100.763 102.842 101.853 100.637 103.884 99.949C110.509 97.705 114.06 90.5155 111.816 83.8908Z" fill="#F0F0F0"/>
    <path fill-rule="evenodd" clip-rule="evenodd" d="M103.488 101.327C105.24 100.09 107.664 100.508 108.901 102.26L119.723 117.592C122.952 122.166 119.681 128.479 114.082 128.479H87.3537C81.4996 128.479 78.3016 121.651 82.0493 117.154L83.8309 115.016C85.2042 113.368 87.6534 113.145 89.3013 114.519C90.9493 115.892 91.1719 118.341 89.7986 119.989L89.1974 120.711H112.416L102.554 106.74C101.317 104.987 101.735 102.564 103.488 101.327Z" fill="#F0F0F0"/>
    <path d="M94.3747 105.174C94.3747 107.319 92.6357 109.058 90.4905 109.058C88.3454 109.058 86.6064 107.319 86.6064 105.174C86.6064 103.029 88.3454 101.29 90.4905 101.29C92.6357 101.29 94.3747 103.029 94.3747 105.174Z" fill="#F0F0F0"/>
    <path d="M151.1 128.858C134.789 157.109 98.6655 166.788 70.4148 150.478C42.1642 134.167 32.4848 98.0435 48.7953 69.7929C65.1058 41.5423 101.23 31.8629 129.48 48.1734" stroke="#F0F0F0" stroke-width="2.2838" stroke-linecap="round" stroke-linejoin="round"/>
    <ellipse cx="149.746" cy="130.432" rx="18.3032" ry="18.3032" transform="rotate(60 149.746 130.432)" fill="#F0F0F0"/>
    <circle r="2.50842" transform="matrix(0.499999 0.866026 -0.866025 0.500001 136.347 53.3992)" fill="#F0F0F0"/>
</svg>
