<svg width="214" height="214" viewBox="0 0 214 214" fill="none" xmlns="http://www.w3.org/2000/svg">
<path d="M143.207 169.852C108.525 189.875 64.1785 177.992 44.1552 143.311C24.1319 108.63 36.0146 64.2826 70.696 44.2593C105.377 24.236 149.724 36.1187 169.748 70.8001" stroke="#F0F0F0" stroke-width="11.419" stroke-linecap="round" stroke-linejoin="round"/>
<path d="M94.0134 123.425H79.4212C78.2256 123.425 78.1976 123.425 78.3794 122.216C79.3443 115.914 80.3208 109.63 81.309 103.365C81.7215 100.785 81.9243 98.1424 82.8682 95.6743C86.4621 86.2352 93.2093 80.5298 103.187 78.7258C104.204 78.561 105.233 78.4862 106.263 78.5021C115.791 78.5021 125.323 78.5021 134.86 78.5021C136.098 78.5021 136.154 78.579 135.839 79.7956C135.201 82.033 133.855 84.0028 132.001 85.4088C130.147 86.8147 127.887 87.5807 125.561 87.5916C118.849 87.5916 112.087 87.5916 105.354 87.5916C103.258 87.5979 101.187 88.0408 99.2713 88.8921C95.6774 90.4863 93.6008 93.3949 92.2794 96.9398C90.9579 100.485 90.4964 104.016 90.0419 107.644C89.7902 109.609 89.5875 111.581 89.3427 113.539C89.2588 114.119 89.3427 114.343 89.986 114.364C94.5657 114.532 99.1454 114.832 103.725 114.65C107.312 114.511 110.85 114.014 114.15 112.448C115.909 111.654 117.479 110.495 118.757 109.049C120.034 107.602 120.99 105.901 121.562 104.058C122.22 101.738 123.378 99.5905 124.953 97.7649C125.834 96.7165 126.933 95.8721 128.172 95.2902C129.412 94.7083 130.764 94.4028 132.133 94.3948C132.56 94.3948 132.875 94.4647 132.784 94.9891C132.154 98.6389 132.084 102.421 130.819 105.924C127.169 115.979 120.009 121.852 109.354 123.376C108.687 123.444 108.016 123.463 107.347 123.432H94.0134V123.425Z" fill="#F0F0F0"/>
<path d="M86.2754 135.501C85.7023 135.506 85.1339 135.397 84.603 135.181C84.0722 134.965 83.5894 134.645 83.1825 134.242C82.7756 133.838 82.4527 133.358 82.2323 132.829C82.0119 132.3 81.8984 131.732 81.8984 131.159C81.8994 130.531 82.024 129.91 82.2653 129.331C82.5066 128.751 82.8597 128.225 83.3046 127.782C83.7494 127.339 84.2772 126.988 84.8577 126.749C85.4383 126.511 86.0602 126.389 86.6879 126.391C87.8448 126.396 88.9532 126.856 89.7745 127.67C90.5958 128.485 91.0642 129.59 91.0788 130.747C91.0789 131.375 90.9543 131.997 90.7123 132.577C90.4703 133.158 90.1157 133.684 89.669 134.126C89.2223 134.568 88.6924 134.917 88.1099 135.153C87.5274 135.389 86.9039 135.508 86.2754 135.501Z" fill="#F0F0F0"/>
<path d="M113.024 135.501C112.445 135.502 111.871 135.389 111.335 135.168C110.8 134.947 110.313 134.623 109.903 134.214C109.492 133.805 109.167 133.319 108.944 132.784C108.721 132.249 108.606 131.676 108.605 131.096C108.638 129.842 109.158 128.649 110.054 127.771C110.951 126.892 112.154 126.397 113.409 126.391C114.58 126.396 115.701 126.865 116.527 127.694C117.354 128.523 117.819 129.646 117.821 130.817C117.797 132.071 117.28 133.265 116.383 134.142C115.485 135.019 114.279 135.507 113.024 135.501Z" fill="#F0F0F0"/>
<path d="M158.096 136.589C141.785 164.84 105.662 174.519 77.4109 158.208C49.1603 141.898 39.4809 105.774 55.7914 77.5234C72.1019 49.2728 108.226 39.5934 136.477 55.9039" stroke="#F0F0F0" stroke-width="2.2838" stroke-linecap="round" stroke-linejoin="round"/>
<ellipse cx="156.742" cy="138.163" rx="18.3032" ry="18.3032" transform="rotate(60 156.742 138.163)" fill="#F0F0F0"/>
<circle r="2.50842" transform="matrix(0.499999 0.866026 -0.866025 0.500001 143.344 61.1297)" fill="#F0F0F0"/>
</svg>
