<svg width="64" height="82" viewBox="0 0 64 82" fill="none"
    xmlns="http://www.w3.org/2000/svg">
    <path d="M31.8945 0C14.2797 0 0 14.292 0 31.9221C0 40.0179 3.01113 47.4098 7.97363 53.0372L31.8945 81.1353L55.8154 53.0372C60.7779 47.4098 63.789 40.0179 63.789 31.9221C63.789 14.292 49.5093 0 31.8945 0Z" fill="#1D1D38"/>
    <path fill-rule="evenodd" clip-rule="evenodd" d="M40.0421 22.6239C38.5863 18.326 33.9219 16.022 29.6239 17.4779C25.326 18.9338 23.022 23.5981 24.4779 27.8961C24.9244 29.2143 24.2178 30.6448 22.8996 31.0913C21.5814 31.5378 20.1509 30.8312 19.7044 29.5131C17.3555 22.5788 21.0727 15.0533 28.007 12.7044C34.9413 10.3555 42.4668 14.0727 44.8157 21.007C47.1646 27.9413 43.4473 35.4668 36.5131 37.8157C35.1949 38.2622 33.7643 37.5556 33.3178 36.2374C32.8713 34.9192 33.5779 33.4887 34.8961 33.0421C39.194 31.5863 41.498 26.9219 40.0421 22.6239Z" fill="#C0E57B"/>
    <path fill-rule="evenodd" clip-rule="evenodd" d="M34.6387 33.9361C35.7757 33.1335 37.3481 33.4046 38.1507 34.5416L45.1722 44.4888C47.2669 47.4562 45.1447 51.5519 41.5124 51.5519H24.1714C20.3733 51.5519 18.2985 47.1221 20.73 44.2043L21.8858 42.8173C22.7768 41.7482 24.3658 41.6037 25.435 42.4947C26.5041 43.3857 26.6486 44.9747 25.7576 46.0438L25.3675 46.5119H40.4313L34.0332 37.448C33.2306 36.311 33.5017 34.7387 34.6387 33.9361Z" fill="#C0E57B"/>
    <path d="M28.7265 36.432C28.7265 37.8238 27.5982 38.952 26.2065 38.952C24.8147 38.952 23.6865 37.8238 23.6865 36.432C23.6865 35.0403 24.8147 33.9121 26.2065 33.9121C27.5982 33.9121 28.7265 35.0403 28.7265 36.432Z" fill="#C0E57B"/>
</svg>
