<svg width="80" height="54" viewBox="0 0 80 54" fill="none" xmlns="http://www.w3.org/2000/svg">
<circle cx="45.6031" cy="29.6031" r="18.4" fill="url(#paint0_linear_2652:15161)"/>
<path fill-rule="evenodd" clip-rule="evenodd" d="M45.8631 11.4553C42.6399 10.0192 39.0388 9.66338 35.5969 10.441C32.155 11.2187 29.0566 13.0881 26.7639 15.7706C24.4713 18.453 23.1071 21.8046 22.875 25.3257C22.6428 28.8467 23.555 32.3485 25.4756 35.3087C27.3962 38.269 30.2222 40.5291 33.5323 41.7519C36.8423 42.9748 40.4589 43.095 43.8428 42.0944C47.2267 41.0939 50.1965 39.0264 52.3093 36.2001C54.4221 33.3739 55.5647 29.9404 55.5668 26.4117V24.74C55.5668 23.7359 56.3808 22.9218 57.3849 22.9218C58.3891 22.9218 59.2031 23.7359 59.2031 24.74V26.4127C59.2007 30.7256 57.8041 34.9231 55.2218 38.3774C52.6395 41.8317 49.0097 44.3587 44.8738 45.5816C40.738 46.8044 36.3176 46.6576 32.2721 45.163C28.2265 43.6683 24.7724 40.906 22.425 37.2879C20.0777 33.6699 18.9627 29.3899 19.2465 25.0864C19.5302 20.7829 21.1975 16.6864 23.9997 13.4079C26.8018 10.1294 30.5887 7.84456 34.7955 6.89408C39.0023 5.94361 43.4037 6.37847 47.3431 8.13379C48.2604 8.54248 48.6726 9.61735 48.2639 10.5346C47.8552 11.4518 46.7804 11.864 45.8631 11.4553Z" fill="#1D1D38"/>
<path fill-rule="evenodd" clip-rule="evenodd" d="M58.67 10.581C59.3804 11.2907 59.3809 12.4419 58.6712 13.1523L40.4894 31.3523C40.1485 31.6936 39.686 31.8854 39.2036 31.8855C38.7212 31.8856 38.2586 31.694 37.9175 31.3529L32.4629 25.8984C31.7529 25.1884 31.7529 24.0371 32.4629 23.3271C33.173 22.6171 34.3242 22.6171 35.0342 23.3271L39.2025 27.4954L56.0987 10.5823C56.8083 9.87189 57.9596 9.87132 58.67 10.581Z" fill="#1D1D38"/>
<defs>
<linearGradient id="paint0_linear_2652:15161" x1="64.0031" y1="29.6031" x2="27.2031" y2="29.6031" gradientUnits="userSpaceOnUse">
<stop stop-color="#91E8B3"/>
<stop offset="1" stop-color="#C0E57B"/>
<stop offset="1" stop-color="#C0E57B"/>
</linearGradient>
</defs>
</svg>
