<svg width="80" height="54" viewBox="0 0 80 54" fill="none" xmlns="http://www.w3.org/2000/svg">
<g clip-path="url(#clip0_2652:15139)">
<path d="M22.3984 36.0008V22.4008L41.5984 12.8008L59.9984 22.4008V36.0008L40.7984 45.6008L22.3984 36.0008Z" fill="url(#paint0_linear_2652:15139)"/>
<path fill-rule="evenodd" clip-rule="evenodd" d="M18.0466 31.8334V19.3052L34.4197 27.8811V40.02L18.0466 31.8334ZM36.4664 40.02V27.9796L43.6269 24.2291L43.6269 28.3748L45.6735 26.8399L45.6735 23.1571L52.8395 19.4037V31.8334L36.4664 40.02ZM44.9025 21.2505L50.6632 18.2332L35.5371 10.3104L29.8951 13.2655L44.5845 21.0423C44.698 21.1023 44.8042 21.1722 44.9025 21.2505ZM27.6963 14.4172L20.411 18.2332L35.5371 26.156L42.7416 22.3824L27.6963 14.4172ZM55.0741 18.2332L54.8861 18.3317V31.8334C54.8861 32.6086 54.4481 33.3173 53.7547 33.664L35.443 42.8199L17.1314 33.664C16.438 33.3173 16 32.6086 16 31.8334V18.2332V18.1394H16.179L35.5371 8L55.0741 18.2332Z" fill="#1D1D38"/>
<path d="M18.0466 19.3052L18.4178 18.5965C18.1698 18.4666 17.872 18.4758 17.6325 18.6207C17.393 18.7656 17.2466 19.0252 17.2466 19.3052H18.0466ZM18.0466 31.8334H17.2466C17.2466 32.1365 17.4178 32.4135 17.6889 32.549L18.0466 31.8334ZM34.4197 27.8811H35.2197C35.2197 27.5835 35.0545 27.3105 34.7909 27.1724L34.4197 27.8811ZM34.4197 40.02L34.062 40.7355C34.3099 40.8595 34.6045 40.8463 34.8403 40.7005C35.0762 40.5547 35.2197 40.2972 35.2197 40.02H34.4197ZM36.4664 27.9796L36.0952 27.2709C35.8315 27.409 35.6664 27.682 35.6664 27.9796H36.4664ZM36.4664 40.02H35.6664C35.6664 40.2972 35.8099 40.5547 36.0458 40.7005C36.2816 40.8463 36.5761 40.8595 36.8241 40.7355L36.4664 40.02ZM43.6269 24.2291L44.4269 24.2291C44.4269 23.9491 44.2806 23.6895 44.041 23.5446C43.8015 23.3997 43.5037 23.3905 43.2557 23.5204L43.6269 24.2291ZM43.6269 28.3748L42.8269 28.3748C42.8269 28.6779 42.9981 28.9549 43.2691 29.0904C43.5401 29.2259 43.8645 29.1967 44.1069 29.0149L43.6269 28.3748ZM45.6735 26.8399L46.1535 27.4799C46.355 27.3288 46.4735 27.0917 46.4735 26.8399L45.6735 26.8399ZM45.6735 23.1571L45.3023 22.4484C45.0387 22.5865 44.8735 22.8595 44.8735 23.1571L45.6735 23.1571ZM52.8395 19.4037H53.6395C53.6395 19.1237 53.4931 18.8641 53.2536 18.7192C53.0141 18.5743 52.7162 18.5651 52.4683 18.695L52.8395 19.4037ZM52.8395 31.8334L53.1972 32.549C53.4682 32.4135 53.6395 32.1365 53.6395 31.8334H52.8395ZM50.6632 18.2332L51.0344 18.9419C51.298 18.8038 51.4632 18.5308 51.4632 18.2332C51.4632 17.9356 51.298 17.6626 51.0344 17.5245L50.6632 18.2332ZM44.9025 21.2505L44.404 21.8762C44.6518 22.0737 44.9929 22.1063 45.2737 21.9592L44.9025 21.2505ZM35.5371 10.3104L35.9083 9.60171C35.6758 9.47994 35.3984 9.47994 35.1659 9.60171L35.5371 10.3104ZM29.8951 13.2655L29.5239 12.5569C29.2609 12.6947 29.0958 12.9668 29.0951 13.2638C29.0945 13.5607 29.2584 13.8336 29.5208 13.9726L29.8951 13.2655ZM44.5845 21.0423L44.9588 20.3352L44.9588 20.3352L44.5845 21.0423ZM20.411 18.2332L20.0398 17.5245C19.7762 17.6626 19.611 17.9356 19.611 18.2332C19.611 18.5308 19.7762 18.8038 20.0398 18.9419L20.411 18.2332ZM27.6963 14.4172L28.0706 13.7102C27.8376 13.5868 27.5587 13.5862 27.3251 13.7086L27.6963 14.4172ZM35.5371 26.156L35.1659 26.8647C35.3984 26.9864 35.6758 26.9864 35.9083 26.8647L35.5371 26.156ZM42.7416 22.3824L43.1128 23.091C43.3758 22.9533 43.5409 22.6811 43.5416 22.3841C43.5422 22.0872 43.3784 21.8143 43.1159 21.6753L42.7416 22.3824ZM54.8861 18.3317L54.5149 17.623C54.2513 17.7611 54.0861 18.0341 54.0861 18.3317H54.8861ZM55.0741 18.2332L55.4453 18.9419C55.709 18.8038 55.8741 18.5308 55.8741 18.2332C55.8741 17.9356 55.709 17.6626 55.4453 17.5245L55.0741 18.2332ZM35.443 42.8199L35.0853 43.5354C35.3105 43.648 35.5756 43.648 35.8008 43.5354L35.443 42.8199ZM17.1314 33.664L17.4891 32.9485L17.4891 32.9485L17.1314 33.664ZM16 18.1394V17.3394C15.5582 17.3394 15.2 17.6976 15.2 18.1394H16ZM16.179 18.1394V18.9394C16.3083 18.9394 16.4356 18.9081 16.5502 18.8481L16.179 18.1394ZM35.5371 8L35.9083 7.29133C35.6758 7.16956 35.3984 7.16956 35.1659 7.29133L35.5371 8ZM17.2466 19.3052V31.8334H18.8466V19.3052H17.2466ZM34.7909 27.1724L18.4178 18.5965L17.6754 20.0138L34.0485 28.5898L34.7909 27.1724ZM35.2197 40.02V27.8811H33.6197V40.02H35.2197ZM17.6889 32.549L34.062 40.7355L34.7775 39.3044L18.4044 31.1179L17.6889 32.549ZM35.6664 27.9796V40.02H37.2664V27.9796H35.6664ZM43.2557 23.5204L36.0952 27.2709L36.8376 28.6883L43.9981 24.9377L43.2557 23.5204ZM44.4269 28.3749L44.4269 24.2291L42.8269 24.2291L42.8269 28.3748L44.4269 28.3749ZM45.1935 26.1999L43.1469 27.7348L44.1069 29.0149L46.1535 27.4799L45.1935 26.1999ZM44.8735 23.1571L44.8735 26.8399L46.4735 26.8399L46.4735 23.1571L44.8735 23.1571ZM52.4683 18.695L45.3023 22.4484L46.0447 23.8657L53.2106 20.1123L52.4683 18.695ZM53.6395 31.8334V19.4037H52.0395V31.8334H53.6395ZM36.8241 40.7355L53.1972 32.549L52.4817 31.1179L36.1086 39.3044L36.8241 40.7355ZM50.292 17.5245L44.5313 20.5418L45.2737 21.9592L51.0344 18.9419L50.292 17.5245ZM35.1659 11.0191L50.292 18.9419L51.0344 17.5245L35.9083 9.60171L35.1659 11.0191ZM30.2663 13.9742L35.9083 11.0191L35.1659 9.60171L29.5239 12.5569L30.2663 13.9742ZM29.5208 13.9726L44.2102 21.7493L44.9588 20.3352L30.2694 12.5585L29.5208 13.9726ZM44.2102 21.7493C44.2795 21.786 44.3442 21.8286 44.404 21.8762L45.4011 20.6249C45.2643 20.5159 45.1164 20.4187 44.9588 20.3352L44.2102 21.7493ZM20.7822 18.9419L28.0675 15.1259L27.3251 13.7086L20.0398 17.5245L20.7822 18.9419ZM35.9083 25.4473L20.7822 17.5245L20.0398 18.9419L35.1659 26.8647L35.9083 25.4473ZM42.3704 21.6737L35.1659 25.4473L35.9083 26.8647L43.1128 23.091L42.3704 21.6737ZM43.1159 21.6753L28.0706 13.7102L27.322 15.1243L42.3673 23.0894L43.1159 21.6753ZM55.2573 19.0404L55.4453 18.9419L54.7029 17.5245L54.5149 17.623L55.2573 19.0404ZM55.6861 31.8334V18.3317H54.0861V31.8334H55.6861ZM54.1125 34.3795C55.0769 33.8974 55.6861 32.9117 55.6861 31.8334H54.0861C54.0861 32.3056 53.8193 32.7373 53.397 32.9485L54.1125 34.3795ZM35.8008 43.5354L54.1125 34.3795L53.397 32.9485L35.0853 42.1043L35.8008 43.5354ZM16.7736 34.3795L35.0853 43.5354L35.8008 42.1043L17.4891 32.9485L16.7736 34.3795ZM15.2 31.8334C15.2 32.9117 15.8092 33.8974 16.7736 34.3795L17.4891 32.9485C17.0668 32.7373 16.8 32.3056 16.8 31.8334H15.2ZM15.2 18.2332V31.8334H16.8V18.2332H15.2ZM15.2 18.1394V18.2332H16.8V18.1394H15.2ZM16.179 17.3394H16V18.9394H16.179V17.3394ZM35.1659 7.29133L15.8078 17.4308L16.5502 18.8481L35.9083 8.70867L35.1659 7.29133ZM55.4453 17.5245L35.9083 7.29133L35.1659 8.70867L54.7029 18.9419L55.4453 17.5245Z" fill="#1D1D38"/>
<line x1="52.8008" y1="9.60312" x2="67.2008" y2="9.60312" stroke="#1D1D38" stroke-width="3.2"/>
<line x1="57.6016" y1="16.0016" x2="72.0016" y2="16.0016" stroke="#1D1D38" stroke-width="3.2"/>
<line x1="57.6016" y1="22.4" x2="68.8016" y2="22.4" stroke="#1D1D38" stroke-width="3.2"/>
<circle cx="77.5992" cy="15.2008" r="2.4" fill="#1D1D38"/>
</g>
<defs>
<linearGradient id="paint0_linear_2652:15139" x1="59.9984" y1="29.2008" x2="22.3984" y2="29.2008" gradientUnits="userSpaceOnUse">
<stop stop-color="#91E8B3"/>
<stop offset="1" stop-color="#C0E57B"/>
<stop offset="1" stop-color="#C0E57B"/>
</linearGradient>
<clipPath id="clip0_2652:15139">
<rect width="80" height="54" fill="white"/>
</clipPath>
</defs>
</svg>
