<svg width="80" height="54" viewBox="0 0 80 54" fill="none" xmlns="http://www.w3.org/2000/svg">
<circle cx="45.6031" cy="29.6031" r="18.4" fill="#E47F10"/>
<path fill-rule="evenodd" clip-rule="evenodd" d="M45.1238 11.9012C41.99 10.5048 38.4888 10.1589 35.1423 10.915C31.7958 11.6711 28.7834 13.4887 26.5543 16.0967C24.3252 18.7048 22.9989 21.9635 22.7731 25.3869C22.5474 28.8103 23.4343 32.215 25.3017 35.0931C27.169 37.9713 29.9167 40.1687 33.1349 41.3577C36.3531 42.5467 39.8695 42.6635 43.1595 41.6907C46.4496 40.7179 49.337 38.7077 51.3913 35.9598C53.4455 33.212 54.5564 29.8737 54.5584 26.4428V24.8175C54.5584 23.8412 55.3498 23.0497 56.3262 23.0497C57.3025 23.0497 58.0939 23.8412 58.0939 24.8175V26.4438C58.0915 30.6371 56.7337 34.7182 54.223 38.0768C51.7123 41.4353 48.1831 43.8922 44.162 45.0811C40.1408 46.2701 35.8431 46.1273 31.9097 44.6741C27.9763 43.2209 24.618 40.5352 22.3357 37.0175C20.0534 33.4997 18.9694 29.3384 19.2453 25.1543C19.5212 20.9701 21.1422 16.9872 23.8667 13.7996C26.5911 10.612 30.273 8.3905 34.3631 7.46639C38.4533 6.54227 42.7326 6.96506 46.5628 8.67172C47.4546 9.06908 47.8554 10.1141 47.458 11.0059C47.0607 11.8977 46.0156 12.2985 45.1238 11.9012Z" fill="#1D1D38"/>
<path fill-rule="evenodd" clip-rule="evenodd" d="M49.2031 16.4023C49.8935 17.0927 49.8935 18.212 49.2031 18.9023L41.7031 26.4023L49.2031 33.9023C49.8935 34.5927 49.8935 35.712 49.2031 36.4023C48.5127 37.0927 47.3935 37.0927 46.7031 36.4023L39.2031 28.9023L31.7031 36.4023C31.0128 37.0927 29.8935 37.0927 29.2031 36.4023C28.5128 35.712 28.5128 34.5927 29.2031 33.9023L36.7031 26.4023L29.2031 18.9023C28.5128 18.212 28.5128 17.0927 29.2031 16.4023C29.8935 15.712 31.0128 15.712 31.7031 16.4023L39.2031 23.9023L46.7031 16.4023C47.3935 15.712 48.5127 15.712 49.2031 16.4023Z" fill="#1D1D38"/>
</svg>
