<svg width="38" height="37" viewBox="0 0 38 37" fill="none"
    xmlns="http://www.w3.org/2000/svg">
    <g id="plus">
        <path id="Vector" fill-rule="evenodd" clip-rule="evenodd" d="M19.0456 6.41125C19.8796 6.41125 20.5556 7.08731 20.5556 7.92127V16.9814H29.6157C30.4497 16.9814 31.1257 17.6574 31.1257 18.4914C31.1257 19.3254 30.4497 20.0014 29.6157 20.0014H20.5556V29.0615C20.5556 29.8955 19.8796 30.5715 19.0456 30.5715C18.2116 30.5715 17.5356 29.8955 17.5356 29.0615V20.0014H8.47547C7.64151 20.0014 6.96545 19.3254 6.96545 18.4914C6.96545 17.6574 7.64151 16.9814 8.47547 16.9814H17.5356V7.92127C17.5356 7.08731 18.2116 6.41125 19.0456 6.41125Z" fill="#1D1D38"/>
    </g>
</svg>
