<svg width="82" height="36" viewBox="0 0 82 36" fill="none" xmlns="http://www.w3.org/2000/svg">
<mask id="path-1-outside-1_403:2054" maskUnits="userSpaceOnUse" x="0" y="-0.667969" width="83" height="37" fill="black">
<rect fill="white" y="-0.667969" width="83" height="37"/>
<path fill-rule="evenodd" clip-rule="evenodd" d="M44.3173 5.83303L38.7383 7.03034V2.50717L44.3173 1.33203V5.83303ZM55.9207 8.33594C53.7428 8.33594 52.3427 9.35573 51.5649 10.0652L51.276 8.69065H46.3867V34.5403L51.9427 33.3653L51.9649 27.0913C52.765 27.6677 53.9428 28.488 55.8985 28.488C59.8766 28.488 63.4991 25.2956 63.4991 18.2679C63.4768 11.8387 59.8099 8.33594 55.9207 8.33594ZM54.5894 23.6139C53.2782 23.6139 52.5004 23.1483 51.967 22.5719L51.9448 14.347C52.5226 13.7041 53.3226 13.2607 54.5894 13.2607C56.6118 13.2607 58.0119 15.522 58.0119 18.4262C58.0119 21.3969 56.634 23.6139 54.5894 23.6139ZM81.0007 18.4935C81.0007 12.8181 78.245 8.33984 72.978 8.33984C67.6887 8.33984 64.4885 12.8181 64.4885 18.4491C64.4885 25.1221 68.2665 28.4919 73.6891 28.4919C76.3338 28.4919 78.3339 27.8933 79.8451 27.0509V22.617C78.3339 23.3707 76.6004 23.8363 74.4003 23.8363C72.2446 23.8363 70.3333 23.0825 70.0889 20.4665H80.9563C80.9563 20.3452 80.9642 20.0705 80.9733 19.7535L80.9735 19.7474L80.9735 19.747C80.986 19.3124 81.0007 18.8 81.0007 18.4935ZM70.0243 16.3911C70.0243 13.8856 71.5579 12.8435 72.9582 12.8435C74.314 12.8435 75.7588 13.8856 75.7588 16.3911H70.0243ZM38.7383 8.71094H44.3165V28.1092H38.7383V8.71094ZM32.398 8.72134L32.7536 10.3619C34.0648 7.96758 36.665 8.45531 37.3761 8.72134V13.8203C36.6872 13.5765 34.4648 13.2661 33.1536 14.9731V28.1196H27.5977V8.72134H32.398ZM21.6402 3.90234L16.2175 5.05516L16.1953 22.8129C16.1953 26.094 18.6622 28.5104 21.9513 28.5104C23.7736 28.5104 25.1071 28.1779 25.8405 27.7789V23.2785C25.1293 23.5667 21.6179 24.5865 21.6179 21.3054V13.4352H25.8405V8.71312H21.6179L21.6402 3.90234ZM8.51166 13.1506C7.33379 13.1506 6.62263 13.4832 6.62263 14.3478C6.62263 15.2918 7.84655 15.7071 9.36496 16.2222C11.8403 17.0621 15.0984 18.1675 15.1121 22.2623C15.1121 26.2306 11.9341 28.5141 7.31157 28.5141C5.40032 28.5141 3.31128 28.1372 1.24446 27.2504V21.9741C3.11126 22.9939 5.46699 23.7476 7.31157 23.7476C8.55611 23.7476 9.44506 23.4151 9.44506 22.3953C9.44506 21.3496 8.1183 20.8717 6.51655 20.2946C4.07718 19.4159 1 18.3073 1 14.6138C1 10.6898 4.00022 8.33984 8.51166 8.33984C10.3562 8.33984 12.1786 8.62805 14.0232 9.35964V14.5695C12.3342 13.6605 10.2007 13.1506 8.51166 13.1506Z"/>
</mask>
<path fill-rule="evenodd" clip-rule="evenodd" d="M44.3173 5.83303L38.7383 7.03034V2.50717L44.3173 1.33203V5.83303ZM55.9207 8.33594C53.7428 8.33594 52.3427 9.35573 51.5649 10.0652L51.276 8.69065H46.3867V34.5403L51.9427 33.3653L51.9649 27.0913C52.765 27.6677 53.9428 28.488 55.8985 28.488C59.8766 28.488 63.4991 25.2956 63.4991 18.2679C63.4768 11.8387 59.8099 8.33594 55.9207 8.33594ZM54.5894 23.6139C53.2782 23.6139 52.5004 23.1483 51.967 22.5719L51.9448 14.347C52.5226 13.7041 53.3226 13.2607 54.5894 13.2607C56.6118 13.2607 58.0119 15.522 58.0119 18.4262C58.0119 21.3969 56.634 23.6139 54.5894 23.6139ZM81.0007 18.4935C81.0007 12.8181 78.245 8.33984 72.978 8.33984C67.6887 8.33984 64.4885 12.8181 64.4885 18.4491C64.4885 25.1221 68.2665 28.4919 73.6891 28.4919C76.3338 28.4919 78.3339 27.8933 79.8451 27.0509V22.617C78.3339 23.3707 76.6004 23.8363 74.4003 23.8363C72.2446 23.8363 70.3333 23.0825 70.0889 20.4665H80.9563C80.9563 20.3452 80.9642 20.0705 80.9733 19.7535L80.9735 19.7474L80.9735 19.747C80.986 19.3124 81.0007 18.8 81.0007 18.4935ZM70.0243 16.3911C70.0243 13.8856 71.5579 12.8435 72.9582 12.8435C74.314 12.8435 75.7588 13.8856 75.7588 16.3911H70.0243ZM38.7383 8.71094H44.3165V28.1092H38.7383V8.71094ZM32.398 8.72134L32.7536 10.3619C34.0648 7.96758 36.665 8.45531 37.3761 8.72134V13.8203C36.6872 13.5765 34.4648 13.2661 33.1536 14.9731V28.1196H27.5977V8.72134H32.398ZM21.6402 3.90234L16.2175 5.05516L16.1953 22.8129C16.1953 26.094 18.6622 28.5104 21.9513 28.5104C23.7736 28.5104 25.1071 28.1779 25.8405 27.7789V23.2785C25.1293 23.5667 21.6179 24.5865 21.6179 21.3054V13.4352H25.8405V8.71312H21.6179L21.6402 3.90234ZM8.51166 13.1506C7.33379 13.1506 6.62263 13.4832 6.62263 14.3478C6.62263 15.2918 7.84655 15.7071 9.36496 16.2222C11.8403 17.0621 15.0984 18.1675 15.1121 22.2623C15.1121 26.2306 11.9341 28.5141 7.31157 28.5141C5.40032 28.5141 3.31128 28.1372 1.24446 27.2504V21.9741C3.11126 22.9939 5.46699 23.7476 7.31157 23.7476C8.55611 23.7476 9.44506 23.4151 9.44506 22.3953C9.44506 21.3496 8.1183 20.8717 6.51655 20.2946C4.07718 19.4159 1 18.3073 1 14.6138C1 10.6898 4.00022 8.33984 8.51166 8.33984C10.3562 8.33984 12.1786 8.62805 14.0232 9.35964V14.5695C12.3342 13.6605 10.2007 13.1506 8.51166 13.1506Z" fill="white"/>
<path d="M38.7383 7.03034H37.7383V8.26773L38.9481 8.00808L38.7383 7.03034ZM44.3173 5.83303L44.5271 6.81077L45.3173 6.64119V5.83303H44.3173ZM38.7383 2.50717L38.5322 1.52864L37.7383 1.69586V2.50717H38.7383ZM44.3173 1.33203H45.3173V0.0994509L44.1111 0.353503L44.3173 1.33203ZM51.5649 10.0652L50.5862 10.2709L50.9461 11.9829L52.2387 10.804L51.5649 10.0652ZM51.276 8.69065L52.2546 8.48496L52.0876 7.69065H51.276V8.69065ZM46.3867 8.69065V7.69065H45.3867V8.69065H46.3867ZM46.3867 34.5403H45.3867V35.7739L46.5936 35.5186L46.3867 34.5403ZM51.9427 33.3653L52.1496 34.3437L52.9398 34.1765L52.9427 33.3688L51.9427 33.3653ZM51.9649 27.0913L52.5494 26.28L50.9718 25.1433L50.9649 27.0878L51.9649 27.0913ZM63.4991 18.2679L64.4991 18.2679L64.499 18.2644L63.4991 18.2679ZM51.967 22.5719L50.967 22.5746L50.968 22.9647L51.233 23.2511L51.967 22.5719ZM51.9448 14.347L51.201 13.6786L50.9437 13.9649L50.9448 14.3497L51.9448 14.347ZM79.8451 27.0509L80.332 27.9243L80.8451 27.6383V27.0509H79.8451ZM79.8451 22.617H80.8451V21.0007L79.3988 21.7221L79.8451 22.617ZM70.0889 20.4665V19.4665H68.9911L69.0932 20.5596L70.0889 20.4665ZM80.9563 20.4665V21.4665H81.9563V20.4665H80.9563ZM80.9733 19.7535L79.9737 19.7234L79.9737 19.7248L80.9733 19.7535ZM80.9735 19.7474L79.9749 19.6948L79.9743 19.7061L79.9739 19.7173L80.9735 19.7474ZM80.9735 19.747L81.9721 19.7995L81.9727 19.7876L81.9731 19.7757L80.9735 19.747ZM70.0243 16.3911H69.0243V17.3911H70.0243V16.3911ZM75.7588 16.3911V17.3911H76.7588V16.3911H75.7588ZM44.3165 8.71094H45.3165V7.71094H44.3165V8.71094ZM38.7383 8.71094V7.71094H37.7383V8.71094H38.7383ZM44.3165 28.1092V29.1092H45.3165V28.1092H44.3165ZM38.7383 28.1092H37.7383V29.1092H38.7383V28.1092ZM32.7536 10.3619L31.7763 10.5737L32.3438 13.1921L33.6307 10.8422L32.7536 10.3619ZM32.398 8.72134L33.3753 8.50952L33.2045 7.72134H32.398V8.72134ZM37.3761 8.72134H38.3761V8.02775L37.7265 7.78473L37.3761 8.72134ZM37.3761 13.8203L37.0424 14.763L38.3761 15.2351V13.8203H37.3761ZM33.1536 14.9731L32.3606 14.364L32.1536 14.6334V14.9731H33.1536ZM33.1536 28.1196V29.1196H34.1536V28.1196H33.1536ZM27.5977 28.1196H26.5977V29.1196H27.5977V28.1196ZM27.5977 8.72134V7.72134H26.5977V8.72134H27.5977ZM16.2175 5.05516L16.0096 4.07702L15.2185 4.24519L15.2175 5.0539L16.2175 5.05516ZM21.6402 3.90234L22.6401 3.90696L22.6459 2.66619L21.4322 2.9242L21.6402 3.90234ZM16.1953 22.8129L15.1953 22.8116V22.8129H16.1953ZM25.8405 27.7789L26.3184 28.6572L26.8405 28.3732V27.7789H25.8405ZM25.8405 23.2785H26.8405V21.7942L25.4649 22.3517L25.8405 23.2785ZM21.6179 13.4352V12.4352H20.6179V13.4352H21.6179ZM25.8405 13.4352V14.4352H26.8405V13.4352H25.8405ZM25.8405 8.71312H26.8405V7.71312H25.8405V8.71312ZM21.6179 8.71312L20.6179 8.7085L20.6133 9.71312H21.6179V8.71312ZM9.36496 16.2222L9.68627 15.2753L9.68626 15.2753L9.36496 16.2222ZM15.1121 22.2623L16.1121 22.2623L16.1121 22.2589L15.1121 22.2623ZM1.24446 27.2504H0.244462V27.9095L0.850167 28.1694L1.24446 27.2504ZM1.24446 21.9741L1.72387 21.0965L0.244462 20.2883V21.9741H1.24446ZM6.51655 20.2946L6.85547 19.3538L6.85547 19.3538L6.51655 20.2946ZM14.0232 9.35964H15.0232V8.68048L14.3919 8.43008L14.0232 9.35964ZM14.0232 14.5695L13.5493 15.4501L15.0232 16.2432V14.5695H14.0232ZM38.9481 8.00808L44.5271 6.81077L44.1074 4.8553L38.5284 6.05261L38.9481 8.00808ZM37.7383 2.50717V7.03034H39.7383V2.50717H37.7383ZM44.1111 0.353503L38.5322 1.52864L38.9444 3.4857L44.5234 2.31056L44.1111 0.353503ZM45.3173 5.83303V1.33203H43.3173V5.83303H45.3173ZM52.2387 10.804C52.9203 10.1824 54.0899 9.33594 55.9207 9.33594V7.33594C53.3957 7.33594 51.7652 8.52904 50.891 9.32631L52.2387 10.804ZM50.2973 8.89634L50.5862 10.2709L52.5435 9.85946L52.2546 8.48496L50.2973 8.89634ZM46.3867 9.69065H51.276V7.69065H46.3867V9.69065ZM47.3867 34.5403V8.69065H45.3867V34.5403H47.3867ZM51.7358 32.3869L46.1798 33.5619L46.5936 35.5186L52.1496 34.3437L51.7358 32.3869ZM50.9649 27.0878L50.9427 33.3618L52.9427 33.3688L52.9649 27.0949L50.9649 27.0878ZM55.8985 27.488C54.268 27.488 53.306 26.8251 52.5494 26.28L51.3803 27.9027C52.2239 28.5104 53.6177 29.488 55.8985 29.488V27.488ZM62.4991 18.2679C62.4991 21.6163 61.6368 23.9218 60.4236 25.3716C59.2201 26.81 57.6063 27.488 55.8985 27.488V29.488C58.1688 29.488 60.3553 28.5698 61.9575 26.6551C63.5501 24.7518 64.4991 21.9471 64.4991 18.2679H62.4991ZM55.9207 9.33594C59.0971 9.33594 62.4781 12.2158 62.4991 18.2713L64.499 18.2644C64.4755 11.4616 60.5227 7.33594 55.9207 7.33594V9.33594ZM51.233 23.2511C51.9504 24.0264 52.9919 24.6139 54.5894 24.6139V22.6139C53.5644 22.6139 53.0503 22.2702 52.701 21.8927L51.233 23.2511ZM50.9448 14.3497L50.967 22.5746L52.967 22.5692L52.9448 14.3443L50.9448 14.3497ZM54.5894 12.2607C53.041 12.2607 51.9699 12.8231 51.201 13.6786L52.6885 15.0155C53.0753 14.5851 53.6043 14.2607 54.5894 14.2607V12.2607ZM59.0119 18.4262C59.0119 16.8265 58.6282 15.3348 57.8977 14.2098C57.16 13.0737 56.0211 12.2607 54.5894 12.2607V14.2607C55.1801 14.2607 55.7524 14.5784 56.2203 15.299C56.6955 16.0307 57.0119 17.1217 57.0119 18.4262H59.0119ZM54.5894 24.6139C56.023 24.6139 57.1652 23.8213 57.9064 22.678C58.6367 21.5515 59.0119 20.0523 59.0119 18.4262H57.0119C57.0119 19.7708 56.698 20.8654 56.2282 21.5901C55.7694 22.2979 55.2004 22.6139 54.5894 22.6139V24.6139ZM72.978 9.33984C75.2894 9.33984 76.998 10.3049 78.1594 11.8815C79.3454 13.4915 80.0007 15.8022 80.0007 18.4935H82.0007C82.0007 15.5094 81.2782 12.7432 79.7696 10.6953C78.2364 8.61392 75.9336 7.33984 72.978 7.33984V9.33984ZM65.4885 18.4491C65.4885 15.8139 66.238 13.5206 67.5301 11.9082C68.8064 10.3156 70.6444 9.33984 72.978 9.33984V7.33984C70.0222 7.33984 67.6156 8.60323 65.9694 10.6575C64.3391 12.6919 63.4885 15.4533 63.4885 18.4491H65.4885ZM73.6891 27.4919C71.1864 27.4919 69.1686 26.7187 67.774 25.2775C66.3771 23.834 65.4885 21.599 65.4885 18.4491H63.4885C63.4885 21.9723 64.4889 24.7587 66.3367 26.6683C68.1868 28.5802 70.7692 29.4919 73.6891 29.4919V27.4919ZM79.3582 26.1774C78.0068 26.9308 76.1763 27.4919 73.6891 27.4919V29.4919C76.4913 29.4919 78.661 28.8558 80.332 27.9243L79.3582 26.1774ZM78.8451 22.617V27.0509H80.8451V22.617H78.8451ZM74.4003 24.8363C76.7543 24.8363 78.6406 24.3352 80.2915 23.5118L79.3988 21.7221C78.0272 22.4062 76.4466 22.8363 74.4003 22.8363V24.8363ZM69.0932 20.5596C69.2399 22.1294 69.9143 23.2628 70.9755 23.966C71.9862 24.6358 73.2297 24.8363 74.4003 24.8363V22.8363C73.4152 22.8363 72.6252 22.6599 72.0803 22.2988C71.5858 21.9711 71.1823 21.4196 71.0845 20.3735L69.0932 20.5596ZM80.9563 19.4665H70.0889V21.4665H80.9563V19.4665ZM79.9737 19.7248C79.9649 20.0315 79.9563 20.3266 79.9563 20.4665H81.9563C81.9563 20.3637 81.9635 20.1095 81.9729 19.7822L79.9737 19.7248ZM79.9739 19.7173L79.9737 19.7234L81.9728 19.7836L81.973 19.7775L79.9739 19.7173ZM79.9749 19.6944L79.9749 19.6948L81.9721 19.7999L81.9721 19.7995L79.9749 19.6944ZM80.0007 18.4935C80.0007 18.7819 79.9866 19.2766 79.9739 19.7182L81.9731 19.7757C81.9854 19.3482 82.0007 18.818 82.0007 18.4935H80.0007ZM72.9582 11.8435C72.014 11.8435 71.0135 12.1954 70.2495 12.9802C69.4774 13.7735 69.0243 14.9276 69.0243 16.3911H71.0243C71.0243 15.3491 71.338 14.7294 71.6827 14.3753C72.0356 14.0127 72.5021 13.8435 72.9582 13.8435V11.8435ZM76.7588 16.3911C76.7588 14.9441 76.338 13.7955 75.601 12.9987C74.8667 12.2048 73.8929 11.8435 72.9582 11.8435V13.8435C73.3794 13.8435 73.8059 14.0033 74.1328 14.3568C74.4571 14.7074 74.7588 15.3326 74.7588 16.3911H76.7588ZM70.0243 17.3911H75.7588V15.3911H70.0243V17.3911ZM44.3165 7.71094H38.7383V9.71094H44.3165V7.71094ZM45.3165 28.1092V8.71094H43.3165V28.1092H45.3165ZM38.7383 29.1092H44.3165V27.1092H38.7383V29.1092ZM37.7383 8.71094V28.1092H39.7383V8.71094H37.7383ZM33.7309 10.1501L33.3753 8.50952L31.4207 8.93317L31.7763 10.5737L33.7309 10.1501ZM37.7265 7.78473C37.2427 7.60375 36.2384 7.37993 35.1323 7.55649C33.9781 7.7407 32.7051 8.36856 31.8765 9.88156L33.6307 10.8422C34.1133 9.9609 34.7959 9.63548 35.4475 9.53149C36.147 9.41984 36.7984 9.5729 37.0258 9.65795L37.7265 7.78473ZM38.3761 13.8203V8.72134H36.3761V13.8203H38.3761ZM33.9467 15.5823C34.4004 14.9916 35.0117 14.7372 35.6278 14.6567C36.2678 14.5731 36.837 14.6903 37.0424 14.763L37.7098 12.8776C37.2263 12.7065 36.3399 12.5466 35.3686 12.6736C34.3735 12.8036 33.218 13.2477 32.3606 14.364L33.9467 15.5823ZM34.1536 28.1196V14.9731H32.1536V28.1196H34.1536ZM27.5977 29.1196H33.1536V27.1196H27.5977V29.1196ZM26.5977 8.72134V28.1196H28.5977V8.72134H26.5977ZM32.398 7.72134H27.5977V9.72134H32.398V7.72134ZM16.4255 6.0333L21.8481 4.88048L21.4322 2.9242L16.0096 4.07702L16.4255 6.0333ZM17.1953 22.8141L17.2175 5.05641L15.2175 5.0539L15.1953 22.8116L17.1953 22.8141ZM21.9513 27.5104C19.2018 27.5104 17.1953 25.5292 17.1953 22.8129H15.1953C15.1953 26.6588 18.1225 29.5104 21.9513 29.5104V27.5104ZM25.3625 26.9005C24.8285 27.1911 23.6792 27.5104 21.9513 27.5104V29.5104C23.8681 29.5104 25.3857 29.1648 26.3184 28.6572L25.3625 26.9005ZM24.8405 23.2785V27.7789H26.8405V23.2785H24.8405ZM20.6179 21.3054C20.6179 22.3059 20.8895 23.1292 21.4498 23.724C22.0009 24.3092 22.7117 24.5454 23.3402 24.6229C24.5525 24.7723 25.7946 24.3761 26.2161 24.2052L25.4649 22.3517C25.1752 22.4691 24.3061 22.7268 23.5849 22.6379C23.2466 22.5962 23.0351 22.4902 22.9056 22.3528C22.7853 22.225 22.6179 21.9454 22.6179 21.3054H20.6179ZM20.6179 13.4352V21.3054H22.6179V13.4352H20.6179ZM25.8405 12.4352H21.6179V14.4352H25.8405V12.4352ZM24.8405 8.71312V13.4352H26.8405V8.71312H24.8405ZM21.6179 9.71312H25.8405V7.71312H21.6179V9.71312ZM20.6402 3.89772L20.6179 8.7085L22.6179 8.71774L22.6401 3.90696L20.6402 3.89772ZM7.62263 14.3478C7.62263 14.271 7.63744 14.2616 7.62581 14.2825C7.61305 14.3054 7.60225 14.3047 7.63251 14.2869C7.72616 14.2318 7.98172 14.1506 8.51166 14.1506V12.1506C7.86373 12.1506 7.17478 12.2357 6.61838 12.5631C5.97304 12.9427 5.62263 13.5788 5.62263 14.3478H7.62263ZM9.68626 15.2753C8.89292 15.0061 8.31569 14.8057 7.92436 14.5798C7.73847 14.4725 7.65897 14.3941 7.62977 14.3562C7.61796 14.3408 7.61825 14.3372 7.62065 14.3439C7.62337 14.3516 7.62263 14.3551 7.62263 14.3478H5.62263C5.62263 15.3575 6.31614 15.9607 6.92443 16.3119C7.52467 16.6584 8.3186 16.9232 9.04366 17.1692L9.68626 15.2753ZM16.1121 22.2589C16.1042 19.8905 15.1333 18.3096 13.7832 17.2383C12.4987 16.219 10.8936 15.6849 9.68627 15.2753L9.04366 17.1692C10.3117 17.5994 11.5733 18.0379 12.5401 18.805C13.4413 19.5201 14.1063 20.5393 14.1121 22.2656L16.1121 22.2589ZM7.31157 29.5141C9.77434 29.5141 11.9625 28.907 13.5591 27.6658C15.1843 26.4022 16.1121 24.5432 16.1121 22.2623H14.1121C14.1121 23.9497 13.451 25.2165 12.3315 26.0868C11.1834 26.9794 9.47136 27.5141 7.31157 27.5141V29.5141ZM0.850167 28.1694C3.04671 29.1118 5.27047 29.5141 7.31157 29.5141V27.5141C5.53017 27.5141 3.57585 27.1625 1.63876 26.3314L0.850167 28.1694ZM0.244462 21.9741V27.2504H2.24446V21.9741H0.244462ZM7.31157 22.7476C5.687 22.7476 3.49785 22.0656 1.72387 21.0965L0.765052 22.8517C2.72468 23.9222 5.24699 24.7476 7.31157 24.7476V22.7476ZM8.44506 22.3953C8.44506 22.4501 8.43911 22.4844 8.43443 22.5031C8.42996 22.5209 8.42579 22.5281 8.42497 22.5295C8.42415 22.5309 8.42193 22.5346 8.41454 22.5415C8.40653 22.549 8.38957 22.5629 8.3581 22.5804C8.20538 22.6656 7.8796 22.7476 7.31157 22.7476V24.7476C7.98808 24.7476 8.72904 24.6634 9.33193 24.3273C9.64988 24.1501 9.9414 23.8959 10.1485 23.5442C10.3556 23.1923 10.4451 22.7993 10.4451 22.3953H8.44506ZM6.17762 21.2354C7.0119 21.536 7.63559 21.7653 8.06321 22.0244C8.47978 22.2769 8.44506 22.3936 8.44506 22.3953H10.4451C10.4451 21.3514 9.74696 20.7062 9.09972 20.314C8.46352 19.9285 7.62295 19.6303 6.85547 19.3538L6.17762 21.2354ZM0 14.6138C0 16.7993 0.936278 18.2774 2.2236 19.2944C3.44791 20.2617 4.9887 20.8071 6.17763 21.2354L6.85547 19.3538C5.60504 18.9034 4.38755 18.4552 3.46343 17.7251C2.60231 17.0448 2 16.1219 2 14.6138H0ZM8.51166 7.33984C6.0926 7.33984 3.96888 7.96953 2.42978 9.23221C0.86811 10.5134 0 12.3739 0 14.6138H2C2 12.9297 2.632 11.6532 3.6983 10.7784C4.78717 9.88514 6.41927 9.33984 8.51166 9.33984V7.33984ZM14.3919 8.43008C12.4149 7.64599 10.4652 7.33984 8.51166 7.33984V9.33984C10.2472 9.33984 11.9423 9.6101 13.6545 10.2892L14.3919 8.43008ZM15.0232 14.5695V9.35964H13.0232V14.5695H15.0232ZM8.51166 14.1506C10.0349 14.1506 12.0056 14.6193 13.5493 15.4501L14.4971 13.6889C12.6627 12.7017 10.3665 12.1506 8.51166 12.1506V14.1506Z" fill="#6461FC" mask="url(#path-1-outside-1_403:2054)"/>
</svg>
